<svg aria-hidden="true" version="1.1" xmlns="http://www.w3.org/2000/svg" xml:space="preserve">
  <defs>
		<symbol id="home" title="home" x="0px" y="0px" viewBox="0 0 36 36">
			<path class="st0" d="M32.5,12.9l-2.4-1.7V4.8c0-0.6-0.5-1.2-1.2-1.2h-4.7c-0.6,0-1.2,0.5-1.2,1.2v1.5l-4.4-3.1
				c-0.4-0.3-0.9-0.3-1.3,0L3.5,12.9C3,13.3,2.9,14,3.2,14.5c0.4,0.5,1.1,0.7,1.6,0.3L5.9,14v17.8c0,0.6,0.5,1.2,1.2,1.2h7.1
				c0.6,0,1.2-0.5,1.2-1.2v-9h5.3v9c0,0.6,0.5,1.2,1.2,1.2h7c0.6,0,1.2-0.5,1.2-1.2V14l1.1,0.8c0.5,0.4,1.3,0.2,1.6-0.3
				C33.1,14,33,13.3,32.5,12.9z M27.7,30.6H23v-9c0-0.6-0.5-1.2-1.2-1.2h-7.7c-0.6,0-1.2,0.5-1.2,1.2v9H8.3V12.4L18,5.6l5.5,3.9
				c0.4,0.2,0.8,0.3,1.2,0.1c0.4-0.2,0.6-0.6,0.6-1V5.9h2.3V30.6z"/>
		</symbol>
		
		<symbol id="graphs" title="graphs" x="0px" y="0px" viewBox="0 0 25 24">
			<path d="M23.1593 5.04394H18.2298C17.7256 5.04394 17.3169 5.45452 17.3169 5.96102V21.6431H15.7651V0.917081C15.7651 0.410577 15.3564 0 14.8522 0H9.92266C9.41848 0 9.00979 0.410577 9.00979 0.917081V21.6431H7.4579V12.3806C7.4579 11.8741 7.04921 11.4635 6.54503 11.4635H1.61551C1.11133 11.4635 0.702637 11.8741 0.702637 12.3806V22.5602C0.702637 23.0667 1.11133 23.4773 1.61551 23.4773H23.1593C23.6635 23.4773 24.0722 23.0667 24.0722 22.5602V5.96102C24.0722 5.45452 23.6635 5.04394 23.1593 5.04394ZM5.63215 21.6431H2.52838V13.2977H5.63215V21.6431ZM10.8355 1.83416H13.9393V21.6431H10.8355V1.83416ZM22.2465 21.6431H19.1427V6.8781H22.2465V21.6431Z"/>
		</symbol>

		<symbol id="settings" title="settings" x="0px" y="0px" viewBox="0 0 24 24">
			<path d="M22.8575 8.52885H21.96C21.6068 8.52885 21.2895 8.31301 21.1528 7.98209C21.0132 7.64648 21.0732 7.24076 21.3231 6.99086L21.9577 6.35628C22.3128 6.01476 22.3128 5.40082 21.9577 5.05935L18.7152 1.81701C18.3738 1.46173 17.7598 1.46183 17.4183 1.81701L16.7838 2.45154C16.5339 2.70144 16.1281 2.76138 15.7956 2.62303C15.4616 2.48515 15.2458 2.16784 15.2458 1.81458V0.917081C15.2458 0.410577 14.8352 0 14.3287 0H9.74329C9.23679 0 8.82621 0.410577 8.82621 0.917081V1.81458C8.82621 2.16784 8.61042 2.48515 8.27908 2.62193C7.94348 2.76151 7.53813 2.7014 7.28822 2.45154L6.65369 1.81701C6.31217 1.46183 5.69823 1.46178 5.35676 1.81701L2.11433 5.05935C1.75621 5.41747 1.75616 5.99816 2.11433 6.35628L2.7489 6.99086C2.99876 7.24076 3.06034 7.64244 2.92035 7.97901C2.78251 8.31301 2.46516 8.52885 2.11194 8.52885H1.21444C0.70794 8.52885 0.297363 8.93943 0.297363 9.44593V14.0313C0.297363 14.5378 0.70794 14.9484 1.21444 14.9484H2.11194C2.46516 14.9484 2.79205 15.1872 2.93048 15.5225C3.07006 15.8582 2.99876 16.2365 2.74886 16.4864L2.11433 17.121C1.75616 17.4791 1.75621 18.0598 2.11433 18.4179L5.35676 21.6602C5.69823 22.0155 6.31222 22.0154 6.65369 21.6602L7.28822 21.0257C7.53808 20.7758 7.9438 20.7159 8.27642 20.8542C8.61042 20.9921 8.82621 21.3094 8.82621 21.6627V22.5602C8.82621 23.0667 9.23679 23.4773 9.74329 23.4773H14.3287C14.8352 23.4773 15.2458 23.0667 15.2458 22.5602V21.6627C15.2458 21.3094 15.4616 20.9921 15.7929 20.8553C16.1285 20.7158 16.5339 20.7758 16.7838 21.0257L17.4183 21.6602C17.7598 22.0154 18.3738 22.0155 18.7152 21.6602L21.9577 18.4179C22.3128 18.0764 22.3128 17.4625 21.9576 17.1209L21.3231 16.4864C21.0732 16.2365 21.0019 15.8582 21.1419 15.5216C21.2798 15.1876 21.6068 14.9484 21.96 14.9484H22.8575C23.364 14.9484 23.7746 14.5378 23.7746 14.0313V9.44593C23.7746 8.93943 23.364 8.52885 22.8575 8.52885ZM21.9405 13.1143C20.8496 13.122 19.8691 13.798 19.4481 14.8181C19.0247 15.8361 19.2463 16.9923 20.0123 17.7694L18.0668 19.7149C17.2897 18.9489 16.1168 18.7341 15.0958 19.1588C14.0787 19.5786 13.4195 20.5522 13.4117 21.6431H10.6603C10.6525 20.5522 9.97618 19.5715 8.95648 19.1507C7.93839 18.7272 6.78231 18.9489 6.00527 19.7149L4.05973 17.7694C4.82572 16.9923 5.04743 15.8362 4.62433 14.8191C4.20454 13.8021 3.22235 13.1221 2.13152 13.1143V10.3629C3.22235 10.3552 4.19596 9.69588 4.61521 8.68017C5.03867 7.66216 4.82572 6.48495 4.05973 5.70786L6.00527 3.76232C6.78231 4.52831 7.93852 4.74993 8.9596 4.32527C9.97664 3.90548 10.6526 2.92494 10.6603 1.83412H13.4118C13.4195 2.92498 14.0788 3.8986 15.0985 4.31949C16.1166 4.74291 17.2897 4.52831 18.0668 3.76232L20.0123 5.70782C19.2463 6.48491 19.0331 7.66175 19.4562 8.67879C19.876 9.69583 20.8496 10.3551 21.9405 10.3629V13.1143H21.9405ZM12.036 6.23615C9.00192 6.23615 6.53351 8.70456 6.53351 11.7386C6.83578 19.0384 17.2374 19.0363 17.5385 11.7386C17.5385 8.70456 15.0701 6.23615 12.036 6.23615ZM12.036 15.407C10.0133 15.407 8.36767 13.7613 8.36767 11.7386C8.56915 6.8721 15.5036 6.87352 15.7043 11.7387C15.7043 13.7613 14.0587 15.407 12.036 15.407Z"/>
		</symbol>

		<symbol id="help" title="help" x="0px" y="0px" viewBox="0 0 23 23">
			<path d="M11.5011 23C5.15213 22.993 0.00697242 17.8484 0 11.5V11.27C0.126434 4.95023 5.33031 -0.0828295 11.6514 0.00103295C17.9726 0.0848954 23.0411 5.25424 22.9998 11.5751C22.9584 17.8961 17.8228 22.9987 11.5011 23ZM11.4827 20.7H11.5011C16.5809 20.6949 20.6954 16.5746 20.6929 11.4954C20.6903 6.4162 16.5717 2.30002 11.4919 2.30002C6.41222 2.30002 2.29357 6.4162 2.29103 11.4954C2.28849 16.5746 6.40302 20.6949 11.4827 20.7ZM12.6513 18.4H10.351V16.1H12.6513V18.4ZM12.6513 14.95H10.351C10.3147 13.4523 11.0942 12.0529 12.3867 11.2953C13.1458 10.7134 13.8014 10.212 13.8014 9.20001C13.8014 7.92976 12.7715 6.90001 11.5011 6.90001C10.2308 6.90001 9.20092 7.92976 9.20092 9.20001H6.90069V9.09651C6.91918 7.45309 7.81311 5.94437 9.24574 5.13867C10.6784 4.33298 12.4321 4.3527 13.8462 5.19042C15.2603 6.02815 16.1201 7.55659 16.1016 9.20001C16.0193 10.4409 15.3536 11.5693 14.3074 12.2418C13.3617 12.8354 12.7487 13.8377 12.6513 14.95Z"/>
		</symbol>

		<symbol id="logo" title="logo" width="39" height="34" viewBox="0 0 39 34">
			<path d="M21.3828 11.1181C30.4855 13.6162 40.571 3.29014 38.073 12.3929C35.5749 21.4956 25.5847 29.4348 16.482 26.9367C7.37922 24.4387 2.02509 15.0344 4.52317 5.93162C7.02126 -3.17111 12.28 8.62003 21.3828 11.1181Z" fill="#37B874"/>
			<path d="M17.8168 10.8048C17.8406 11.0221 17.7335 11.2381 17.5772 11.3905C17.3961 11.5664 17.1922 11.6387 16.963 11.7299C16.7134 11.8298 16.4678 11.9462 16.2497 12.1053C15.348 12.7643 15.4961 13.9623 15.8903 14.8735C15.8973 14.8897 15.9041 14.9058 15.9117 14.9216C16.0137 13.2766 17.5265 12.6239 17.7437 12.5029C17.5616 12.6043 16.9015 13.0963 16.5321 13.7048C16.2575 14.157 16.102 14.6618 16.1249 15.1962C16.2272 14.8567 16.5305 14.6171 16.8438 14.451C17.1571 14.2848 17.4995 14.1698 17.7866 13.9615C18.2729 13.6087 18.552 13.0019 18.544 12.4008C18.536 11.7998 18.2545 11.2165 17.8168 10.8048Z" fill="#F8F8F8"/>
			<path d="M14.2809 20.28C15.232 22.9386 15.1372 27.1096 15.0525 28.7813C15.0502 28.8273 15.0586 28.8732 15.0771 28.9163C15.0956 28.9593 15.1238 28.9987 15.1602 29.032C15.1965 29.0653 15.2402 29.0918 15.2886 29.1099C15.3369 29.128 15.389 29.1374 15.4416 29.1375C15.4943 29.1376 15.5464 29.1284 15.5948 29.1105C15.6433 29.0925 15.6871 29.0661 15.7236 29.033C15.7601 28.9998 15.7885 28.9606 15.8072 28.9176C15.8259 28.8745 15.8345 28.8287 15.8324 28.7827C15.7954 27.9272 15.7421 27.0723 15.6725 26.218C15.5584 24.8523 15.4003 23.4875 15.1519 22.1352C14.8986 20.7585 14.8189 19.3636 14.05 18.1111C12.8319 16.1261 10.7302 14.2935 8.25082 13.5298C8.95533 13.7467 13.7627 14.7644 14.9002 18.975C14.9141 18.9306 14.9265 18.8857 14.9388 18.8412C15.6433 16.3064 15.4739 13.141 12.4724 11.8382C11.7462 11.5231 10.9609 11.3322 10.1712 11.1838C9.44678 11.0476 8.80621 10.9514 8.18162 10.5761C7.64108 10.2514 7.21426 9.73979 7.17452 9.16766C6.08818 10.427 5.55037 12.0633 5.83172 13.6209C6.11307 15.1785 7.2476 16.6253 8.86513 17.3227C9.82016 17.7343 10.8912 17.8818 11.9024 18.1706L11.9205 18.1758C12.4768 18.3374 12.981 18.6125 13.3915 18.9784C13.802 19.3443 14.1069 19.7905 14.2809 20.28Z" fill="#F8F8F8"/>
			<path d="M22.589 18.0586C19.8417 20.5954 17.101 25.494 16.0488 27.4843C16.0198 27.539 15.9804 27.5875 15.9328 27.6268C15.8852 27.6661 15.8305 27.6955 15.7719 27.7131C15.7134 27.7307 15.6522 27.7362 15.592 27.7293C15.5318 27.7223 15.474 27.7031 15.4218 27.6728C15.3697 27.6424 15.3245 27.6015 15.2887 27.5526C15.253 27.5037 15.2276 27.4478 15.2141 27.3882C15.2005 27.3285 15.199 27.2665 15.2097 27.2057C15.2205 27.1449 15.2432 27.0867 15.2765 27.0345C15.8944 26.0624 16.5281 25.1005 17.1774 24.1487C18.2185 22.6288 19.3022 21.1355 20.4669 19.7089C21.6529 18.2567 22.6796 16.683 24.2913 15.6736C26.845 14.0735 30.169 13.1618 33.1402 13.71C32.296 13.5541 26.8497 11.9534 22.8633 16.1847C22.8796 16.1252 22.898 16.0658 22.916 16.007C23.9417 12.6557 26.2603 9.07794 30.1143 9.3022C31.0467 9.35657 31.9532 9.58943 32.8351 9.87418C33.6441 10.1353 34.3431 10.3943 35.2158 10.32C35.9711 10.2558 36.7409 9.90871 37.169 9.26732C37.3878 11.3584 36.8077 13.5699 35.471 15.2159C34.1342 16.8619 32.0289 17.8853 29.9552 17.7589C28.7309 17.6841 27.5713 17.2356 26.3749 16.9857L26.3535 16.9813C25.6935 16.8469 25.0078 16.8746 24.3532 17.0619C23.6985 17.2493 23.0938 17.5909 22.589 18.0586Z" fill="#F8F8F8"/>
		</symbol>

		<symbol id="logOut" title="logOut" viewBox="0 0 19 19">
			<path d="M13.3965 4.45312V2.96875C13.3965 1.33173 12.0648 0 10.4277 0H2.96875C1.33173 0 0 1.33173 0 2.96875V16.0312C0 17.6683 1.33173 19 2.96875 19H10.4277C12.0648 19 13.3965 17.6683 13.3965 16.0312V14.5469C13.3965 14.1369 13.0642 13.8047 12.6543 13.8047C12.2444 13.8047 11.9121 14.1369 11.9121 14.5469V16.0312C11.9121 16.8497 11.2462 17.5156 10.4277 17.5156H2.96875C2.15031 17.5156 1.48438 16.8497 1.48438 16.0312V2.96875C1.48438 2.15031 2.15031 1.48438 2.96875 1.48438H10.4277C11.2462 1.48438 11.9121 2.15031 11.9121 2.96875V4.45312C11.9121 4.86307 12.2444 5.19531 12.6543 5.19531C13.0642 5.19531 13.3965 4.86307 13.3965 4.45312ZM18.4566 10.7749L16.7946 12.4369C16.5047 12.7268 16.0347 12.7268 15.745 12.4369C15.455 12.1471 15.455 11.6771 15.745 11.3874L16.9271 10.2051H8.01562C7.60568 10.2051 7.27344 9.87283 7.27344 9.46289C7.27344 9.05295 7.60568 8.7207 8.01562 8.7207H16.9271L15.745 7.53842C15.455 7.24865 15.455 6.77869 15.745 6.48892C15.8899 6.34396 16.0798 6.27148 16.2697 6.27148C16.4597 6.27148 16.6496 6.34396 16.7946 6.48892L18.4566 8.15087C19.18 8.87436 19.18 10.0514 18.4566 10.7749Z" fill="#2B2B2B"/>
		</symbol>

		<symbol id="card-arrow" title="card-arrow" width="16" height="13" viewBox="0 0 16 13">
			<path d="M8 13L15.2169 0.5L0.783121 0.5L8 13ZM9.25 1.75L9.25 1L6.75 1L6.75 1.75L9.25 1.75Z" fill="#2B2B2B"/>
		</symbol>
		
		<symbol id="card-shape" title="card-shape" width="268" height="344" viewBox="0 0 268 344">
			<path d="M261.055 323.912C260.443 330.877 255.26 336.45 248.325 337.338C231.241 339.526 194.75 343 135.247 343C73.8898 343 38.0065 339.51 21.5424 337.323C14.914 336.442 9.91992 331.232 9.12406 324.592C6.45578 302.334 0.999978 247.581 0.999984 172C0.999991 96.6039 6.42913 41.9342 9.10443 19.5716C9.90796 12.8551 14.9914 7.59013 21.6999 6.72215C38.5808 4.538 75.1938 1.00001 135.247 1.00002C194.75 1.00002 231.241 4.47354 248.325 6.66186C255.26 7.55011 260.443 13.1229 261.055 20.0876C263.048 42.7672 267 97.1776 267 172C267 246.822 263.048 301.233 261.055 323.912Z" fill="#F4F4F4" stroke-width="2"/>
		</symbol>

		<symbol id="settingsCta" title="settingsCta" viewBox="0 0 25 24">
			<path d="M7.87842 21.5C6.33253 21.4935 4.97168 20.4795 4.52342 19H2.37842V17H4.52342C5.03832 15.273 6.78046 14.2192 8.54912 14.565C10.3178 14.9108 11.5347 16.5431 11.3613 18.3369C11.1878 20.1307 9.68057 21.4995 7.87842 21.5ZM7.87842 16.5C7.04999 16.5 6.37842 17.1716 6.37842 18C6.37842 18.8284 7.04999 19.5 7.87842 19.5C8.70685 19.5 9.37842 18.8284 9.37842 18C9.37842 17.1716 8.70685 16.5 7.87842 16.5ZM22.3784 19H12.3784V17H22.3784V19ZM16.8784 15.5C15.0763 15.4995 13.5691 14.1307 13.3956 12.3369C13.2221 10.5431 14.4391 8.91084 16.2077 8.56503C17.9764 8.21923 19.7185 9.27297 20.2334 11H22.3784V13H20.2334C19.7852 14.4795 18.4243 15.4935 16.8784 15.5ZM16.8784 10.5C16.05 10.5 15.3784 11.1716 15.3784 12C15.3784 12.8284 16.05 13.5 16.8784 13.5C17.7068 13.5 18.3784 12.8284 18.3784 12C18.3784 11.1716 17.7068 10.5 16.8784 10.5ZM12.3784 13H2.37842V11H12.3784V13ZM9.87842 9.49999C8.07627 9.49953 6.56905 8.1307 6.39557 6.33692C6.22209 4.54314 7.43906 2.91084 9.20772 2.56503C10.9764 2.21923 12.7185 3.27297 13.2334 4.99999H22.3784V6.99999H13.2334C12.7849 8.47928 11.4242 9.49321 9.87842 9.49999ZM9.87842 4.49999C9.0604 4.5011 8.3941 5.15742 8.38065 5.97534C8.3672 6.79325 9.01157 7.47112 9.82911 7.49911C10.6467 7.52711 11.3359 6.89491 11.3784 6.07799V6.36799V5.99999C11.3784 5.17157 10.7068 4.49999 9.87842 4.49999ZM5.37842 6.99999H2.37842V4.99999H5.37842V6.99999Z" fill="#2B2B2B"/>
		</symbol>

		<symbol id="humidity" title="humidity" viewBox="0 0 108 108">
			<g clip-path="url(#clip0)">
			<g filter="url(#filter0_i)">
			<path fill-rule="evenodd" clip-rule="evenodd" d="M84.8513 55.8433C84.8383 55.8147 84.8236 55.7869 84.8089 55.7592L55.7486 1.35387C55.3853 0.673035 54.6759 0.248535 53.9053 0.248535C53.1339 0.248535 52.4253 0.673035 52.062 1.35387L37.6984 28.2435C37.1547 29.2614 37.5392 30.5284 38.5572 31.0713C39.576 31.6158 40.8413 31.2313 41.385 30.2133L53.9053 6.7744L81.079 57.6474C81.0929 57.6743 81.1059 57.7013 81.1206 57.7282C83.4888 62.1618 84.7403 67.1774 84.7403 72.2339C84.7403 89.2367 70.9073 103.069 53.9053 103.069C36.9025 103.069 23.0703 89.2367 23.0703 72.2339C23.0703 67.1774 24.3218 62.161 26.69 57.7282C26.7055 57.7005 26.7194 57.6719 26.7333 57.6441L33.5073 44.9622C34.051 43.9442 33.6665 42.6781 32.6485 42.1344C31.6305 41.5907 30.3644 41.9752 29.8207 42.9932L23.0017 55.7592C22.9862 55.7878 22.9707 55.8172 22.9577 55.8465C20.2964 60.8614 18.8906 66.526 18.8906 72.2339C18.8906 91.5412 34.5979 107.249 53.9053 107.249C73.2127 107.249 88.92 91.5412 88.92 72.2339C88.92 66.5243 87.5134 60.8589 84.8513 55.8433Z" fill="#F8F8F8"/>
			<path fill-rule="evenodd" clip-rule="evenodd" d="M63.4833 55.1926C62.4833 54.6155 61.2057 54.9584 60.6286 55.9576L43.562 85.5174C42.9849 86.5174 43.3277 87.795 44.3269 88.3722C44.6559 88.5624 45.0151 88.653 45.3702 88.653C46.0919 88.653 46.7948 88.2783 47.1817 87.6073L64.2482 58.0474C64.8254 57.0482 64.4825 55.7698 63.4833 55.1926Z" fill="#F8F8F8"/>
			<path fill-rule="evenodd" clip-rule="evenodd" d="M42.7403 52.5427C38.0365 52.5427 34.2095 56.3698 34.2095 61.0735C34.2095 65.7781 38.0365 69.6052 42.7403 69.6052C47.4441 69.6052 51.2711 65.7781 51.2711 61.0735C51.2711 56.3698 47.4441 52.5427 42.7403 52.5427ZM42.7403 65.4255C40.341 65.4255 38.3892 63.4736 38.3892 61.0743C38.3892 58.6743 40.341 56.7224 42.7403 56.7224C45.1395 56.7224 47.0914 58.6743 47.0914 61.0743C47.0914 63.4736 45.1395 65.4255 42.7403 65.4255Z" fill="#F8F8F8"/>
			<path fill-rule="evenodd" clip-rule="evenodd" d="M56.5391 82.4913C56.5391 87.1959 60.3669 91.0229 65.0707 91.0229C69.7745 91.0229 73.6015 87.1959 73.6015 82.4913C73.6015 77.7875 69.7745 73.9604 65.0707 73.9604C60.3669 73.9604 56.5391 77.7875 56.5391 82.4913ZM65.0707 78.1401C67.4699 78.1401 69.4218 80.092 69.4218 82.4913C69.4218 84.8913 67.4699 86.8432 65.0707 86.8432C62.6714 86.8432 60.7188 84.8913 60.7188 82.4913C60.7188 80.092 62.6706 78.1401 65.0707 78.1401Z" fill="#F8F8F8"/>
			<path fill-rule="evenodd" clip-rule="evenodd" d="M35.603 38.6926C36.7541 38.6926 37.6929 37.7538 37.6929 36.6028C37.6929 35.4517 36.7541 34.5129 35.603 34.5129C34.452 34.5129 33.5132 35.4517 33.5132 36.6028C33.5132 37.7538 34.452 38.6926 35.603 38.6926Z" fill="#F8F8F8"/>
			</g>
			</g>
			<defs>
			<filter id="filter0_i" x="17.8906" y="0.248535" width="71.0294" height="108" filterUnits="userSpaceOnUse" color-interpolation-filters="sRGB">
			<feFlood flood-opacity="0" result="BackgroundImageFix"/>
			<feBlend mode="normal" in="SourceGraphic" in2="BackgroundImageFix" result="shape"/>
			<feColorMatrix in="SourceAlpha" type="matrix" values="0 0 0 0 0 0 0 0 0 0 0 0 0 0 0 0 0 0 127 0" result="hardAlpha"/>
			<feOffset dx="-1" dy="1"/>
			<feGaussianBlur stdDeviation="2"/>
			<feComposite in2="hardAlpha" operator="arithmetic" k2="-1" k3="1"/>
			<feColorMatrix type="matrix" values="0 0 0 0 0 0 0 0 0 0 0 0 0 0 0 0 0 0 0.42 0"/>
			<feBlend mode="normal" in2="shape" result="effect1_innerShadow"/>
			</filter>
			<clipPath id="clip0">
			<rect width="107" height="107" fill="white" transform="translate(0.5 0.248535)"/>
			</clipPath>
			</defs>
		</symbol>

		<symbol id="ground-humidity" title="ground-humidity" viewBox="0 0 136 136">
			<g filter="url(#filter0_i)">
			<path d="M81.1516 18.541C80.4046 17.8197 79.2671 17.8197 78.5201 18.541C77.6666 19.3598 58.1323 38.3539 49.061 60.3682C48.0833 60.003 46.9577 59.7294 45.5024 59.7294C42.0686 59.7294 40.2261 61.0925 38.7457 62.1887C37.453 63.1464 36.4322 63.9022 34.2278 63.9022C32.0272 63.9022 31.0064 63.1462 29.7156 62.1906C28.237 61.0945 26.3945 59.7294 22.9627 59.7294C21.8786 59.7294 21.0015 60.6626 21.0015 61.8159C21.0015 62.9691 21.8786 63.9024 22.9627 63.9024C25.1633 63.9024 26.184 64.6584 27.4749 65.6139C28.9535 66.71 30.7959 68.0751 34.2278 68.0751C37.6617 68.0751 39.5059 66.71 40.9864 65.6139C42.2791 64.6584 43.2998 63.9024 45.5024 63.9024C47.7087 63.9024 48.7315 64.6584 50.0261 65.6158C51.5065 66.712 53.3508 68.0751 56.7867 68.0751C60.2206 68.0751 62.0648 66.712 63.5473 65.6158C64.84 64.6582 65.8628 63.9024 68.0691 63.9024C69.1531 63.9024 70.0303 62.9691 70.0303 61.8159C70.0303 60.6626 69.1531 59.7294 68.0691 59.7294C64.6333 59.7294 62.7889 61.0925 61.3066 62.1887C60.0139 63.1464 58.9911 63.9022 56.7869 63.9022C54.7262 63.9022 53.6938 63.2334 52.5137 62.3659C59.8902 44.2413 75.2496 27.6533 79.8361 22.9542C85.9437 29.2154 111.214 56.5712 111.214 80.5934C111.214 99.0003 97.1378 113.976 79.8361 113.976C72.0264 113.976 64.6368 110.881 58.9169 105.417C61.0389 104.999 62.409 104.013 63.5475 103.171C64.8402 102.213 65.863 101.458 68.0693 101.458C69.1533 101.458 70.0305 100.524 70.0305 99.3711C70.0305 98.2179 69.1533 97.2847 68.0693 97.2847C64.6335 97.2847 62.7891 98.6478 61.3068 99.744C60.0141 100.702 58.9913 101.457 56.787 101.457C54.5808 101.457 53.558 100.701 52.2653 99.744C50.7828 98.6478 48.9386 97.2847 45.5028 97.2847C42.0689 97.2847 40.2265 98.6478 38.7461 99.744C37.4534 100.702 36.4326 101.457 34.2281 101.457C32.0276 101.457 31.0068 100.701 29.7159 99.7459C28.2373 98.6498 26.3949 97.2847 22.963 97.2847C21.879 97.2847 21.0018 98.2179 21.0018 99.3711C21.0018 100.524 21.879 101.458 22.963 101.458C25.1636 101.458 26.1844 102.214 27.4753 103.169C28.9538 104.265 30.7963 105.63 34.2281 105.63C37.662 105.63 39.5063 104.265 40.9867 103.169C42.2794 102.214 43.3002 101.458 45.5028 101.458C47.7091 101.458 48.7319 102.214 50.0264 103.171C50.8253 103.762 51.7573 104.414 52.961 104.905C59.6902 113.315 69.4447 118.149 79.8361 118.149C99.3001 118.149 115.137 101.301 115.137 80.5934C115.136 51.5732 82.5383 19.8756 81.1516 18.541Z" fill="#F8F8F8"/>
			</g>
			<g filter="url(#filter1_i)">
			<path d="M22.9612 88.9393C25.1618 88.9393 26.1826 89.6953 27.4734 90.6508C28.952 91.7469 30.7944 93.112 34.2263 93.112C35.3103 93.112 36.1875 92.1788 36.1875 91.0255C36.1875 89.8723 35.3103 88.9391 34.2263 88.9391C32.0257 88.9391 31.005 88.1831 29.7141 87.2275C28.2355 86.1314 26.3931 84.7663 22.9612 84.7663C21.8772 84.7663 21 85.6995 21 86.8528C21 88.006 21.8772 88.9393 22.9612 88.9393Z" fill="#F8F8F8"/>
			</g>
			<g filter="url(#filter2_i)">
			<path d="M45.4998 84.7668C44.4158 84.7668 43.5386 85.7 43.5386 86.8532C43.5386 88.0065 44.4158 88.9397 45.4998 88.9397C47.7061 88.9397 48.7289 89.6957 50.0216 90.6532C51.504 91.7493 53.3483 93.1125 56.784 93.1125C60.2179 93.1125 62.0622 91.7493 63.5446 90.6532C64.8373 89.6955 65.8601 88.9397 68.0664 88.9397C70.3091 88.9397 71.4505 89.7161 72.8926 90.6982C74.5569 91.8289 76.4435 93.1127 79.8332 93.1127C80.9173 93.1127 81.7944 92.1795 81.7944 91.0262C81.7944 89.8729 80.9173 88.9397 79.8332 88.9397C77.5906 88.9397 76.4492 88.1634 75.007 87.1813C73.3427 86.0505 71.4562 84.7668 68.0664 84.7668C64.6307 84.7668 62.7862 86.1299 61.3039 87.226C60.0112 88.1837 58.9885 88.9395 56.7842 88.9395C54.5779 88.9395 53.5551 88.1835 52.2606 87.226C50.78 86.1297 48.9357 84.7668 45.4998 84.7668Z" fill="#F8F8F8"/>
			</g>
			<g filter="url(#filter3_i)">
			<path d="M45.501 72.248C42.0671 72.248 40.2247 73.6111 38.7442 74.7072C37.4515 75.6649 36.4308 76.4207 34.2263 76.4207C32.0257 76.4207 31.005 75.6647 29.7141 74.7092C28.2355 73.6131 26.3931 72.248 22.9612 72.248C21.8772 72.248 21 73.1812 21 74.3344C21 75.4877 21.8772 76.4209 22.9612 76.4209C25.1618 76.4209 26.1826 77.1769 27.4734 78.1324C28.952 79.2286 30.7944 80.5937 34.2263 80.5937C37.6602 80.5937 39.5045 79.2286 40.9849 78.1324C42.2776 77.1769 43.2984 76.4209 45.501 76.4209C46.585 76.4209 47.4622 75.4877 47.4622 74.3344C47.4622 73.181 46.585 72.248 45.501 72.248Z" fill="#F8F8F8"/>
			</g>
			<g filter="url(#filter4_i)">
			<path d="M63.5452 78.1344C64.8379 77.1767 65.8607 76.4209 68.067 76.4209C70.2676 76.4209 71.2884 77.1769 72.5792 78.1324C74.0578 79.2286 75.9002 80.5937 79.3321 80.5937C82.766 80.5937 84.6103 79.2286 86.0907 78.1324C87.3834 77.1769 88.4042 76.4209 90.6068 76.4209C91.6908 76.4209 92.568 75.4877 92.568 74.3344C92.568 73.1812 91.6908 72.248 90.6068 72.248C87.1729 72.248 85.3305 73.6111 83.85 74.7073C82.5573 75.6649 81.5366 76.4207 79.3321 76.4207C77.1315 76.4207 76.1108 75.6647 74.8199 74.7092C73.3413 73.6131 71.4989 72.248 68.067 72.248C64.6313 72.248 62.7868 73.6111 61.3046 74.7073C60.0119 75.6649 58.9891 76.4207 56.7848 76.4207C55.7008 76.4207 54.8236 77.3539 54.8236 78.5072C54.8236 79.6605 55.7008 80.5937 56.7848 80.5937C60.2185 80.5937 62.0628 79.2305 63.5452 78.1344Z" fill="#F8F8F8"/>
			</g>
			<defs>
			<filter id="filter0_i" x="20.0015" y="18" width="95.1352" height="101.149" filterUnits="userSpaceOnUse" color-interpolation-filters="sRGB">
			<feFlood flood-opacity="0" result="BackgroundImageFix"/>
			<feBlend mode="normal" in="SourceGraphic" in2="BackgroundImageFix" result="shape"/>
			<feColorMatrix in="SourceAlpha" type="matrix" values="0 0 0 0 0 0 0 0 0 0 0 0 0 0 0 0 0 0 127 0" result="hardAlpha"/>
			<feOffset dx="-1" dy="1"/>
			<feGaussianBlur stdDeviation="2"/>
			<feComposite in2="hardAlpha" operator="arithmetic" k2="-1" k3="1"/>
			<feColorMatrix type="matrix" values="0 0 0 0 0 0 0 0 0 0 0 0 0 0 0 0 0 0 0.42 0"/>
			<feBlend mode="normal" in2="shape" result="effect1_innerShadow"/>
			</filter>
			<filter id="filter1_i" x="20" y="84.7663" width="16.1875" height="9.34572" filterUnits="userSpaceOnUse" color-interpolation-filters="sRGB">
			<feFlood flood-opacity="0" result="BackgroundImageFix"/>
			<feBlend mode="normal" in="SourceGraphic" in2="BackgroundImageFix" result="shape"/>
			<feColorMatrix in="SourceAlpha" type="matrix" values="0 0 0 0 0 0 0 0 0 0 0 0 0 0 0 0 0 0 127 0" result="hardAlpha"/>
			<feOffset dx="-1" dy="1"/>
			<feGaussianBlur stdDeviation="2"/>
			<feComposite in2="hardAlpha" operator="arithmetic" k2="-1" k3="1"/>
			<feColorMatrix type="matrix" values="0 0 0 0 0 0 0 0 0 0 0 0 0 0 0 0 0 0 0.42 0"/>
			<feBlend mode="normal" in2="shape" result="effect1_innerShadow"/>
			</filter>
			<filter id="filter2_i" x="42.5386" y="84.7668" width="39.2559" height="9.34591" filterUnits="userSpaceOnUse" color-interpolation-filters="sRGB">
			<feFlood flood-opacity="0" result="BackgroundImageFix"/>
			<feBlend mode="normal" in="SourceGraphic" in2="BackgroundImageFix" result="shape"/>
			<feColorMatrix in="SourceAlpha" type="matrix" values="0 0 0 0 0 0 0 0 0 0 0 0 0 0 0 0 0 0 127 0" result="hardAlpha"/>
			<feOffset dx="-1" dy="1"/>
			<feGaussianBlur stdDeviation="2"/>
			<feComposite in2="hardAlpha" operator="arithmetic" k2="-1" k3="1"/>
			<feColorMatrix type="matrix" values="0 0 0 0 0 0 0 0 0 0 0 0 0 0 0 0 0 0 0.42 0"/>
			<feBlend mode="normal" in2="shape" result="effect1_innerShadow"/>
			</filter>
			<filter id="filter3_i" x="20" y="72.248" width="27.4622" height="9.34572" filterUnits="userSpaceOnUse" color-interpolation-filters="sRGB">
			<feFlood flood-opacity="0" result="BackgroundImageFix"/>
			<feBlend mode="normal" in="SourceGraphic" in2="BackgroundImageFix" result="shape"/>
			<feColorMatrix in="SourceAlpha" type="matrix" values="0 0 0 0 0 0 0 0 0 0 0 0 0 0 0 0 0 0 127 0" result="hardAlpha"/>
			<feOffset dx="-1" dy="1"/>
			<feGaussianBlur stdDeviation="2"/>
			<feComposite in2="hardAlpha" operator="arithmetic" k2="-1" k3="1"/>
			<feColorMatrix type="matrix" values="0 0 0 0 0 0 0 0 0 0 0 0 0 0 0 0 0 0 0.42 0"/>
			<feBlend mode="normal" in2="shape" result="effect1_innerShadow"/>
			</filter>
			<filter id="filter4_i" x="53.8236" y="72.248" width="38.7444" height="9.34572" filterUnits="userSpaceOnUse" color-interpolation-filters="sRGB">
			<feFlood flood-opacity="0" result="BackgroundImageFix"/>
			<feBlend mode="normal" in="SourceGraphic" in2="BackgroundImageFix" result="shape"/>
			<feColorMatrix in="SourceAlpha" type="matrix" values="0 0 0 0 0 0 0 0 0 0 0 0 0 0 0 0 0 0 127 0" result="hardAlpha"/>
			<feOffset dx="-1" dy="1"/>
			<feGaussianBlur stdDeviation="2"/>
			<feComposite in2="hardAlpha" operator="arithmetic" k2="-1" k3="1"/>
			<feColorMatrix type="matrix" values="0 0 0 0 0 0 0 0 0 0 0 0 0 0 0 0 0 0 0.42 0"/>
			<feBlend mode="normal" in2="shape" result="effect1_innerShadow"/>
			</filter>
			</defs>
		</symbol>

		<symbol id="brightness" title="brightness" viewBox="0 0 136 136">
			<g filter="url(#filter0_i)">
			<path d="M34.3394 68C34.3394 66.7247 33.3056 65.6909 32.0304 65.6909H2.30907C1.0338 65.6909 0 66.7247 0 68C0 69.2752 1.0338 70.3091 2.30907 70.3091H32.0304C33.3056 70.3091 34.3394 69.2752 34.3394 68Z" fill="#F8F8F8"/>
			</g>
			<g filter="url(#filter1_i)">
			<path d="M133.691 65.6909H103.972C102.697 65.6909 101.663 66.7247 101.663 68C101.663 69.2752 102.697 70.3091 103.972 70.3091H133.691C134.966 70.3091 136 69.2752 136 68C136 66.7247 134.966 65.6909 133.691 65.6909Z" fill="#F8F8F8"/>
			</g>
			<g filter="url(#filter2_i)">
			<path d="M85.529 100.129C84.99 98.9729 83.6161 98.4735 82.4603 99.0118C81.3047 99.5508 80.8043 100.925 81.3433 102.081L87.4033 115.076C87.7955 115.916 88.6281 116.41 89.4976 116.41C89.8245 116.41 90.1564 116.34 90.4721 116.193C91.6279 115.654 92.128 114.28 91.589 113.124L85.529 100.129Z" fill="#F8F8F8"/>
			</g>
			<g filter="url(#filter3_i)">
			<path d="M50.4706 35.8717C50.8628 36.7118 51.6954 37.2053 52.5649 37.2053C52.8918 37.2053 53.2236 37.1357 53.5393 36.9886C54.6952 36.4496 55.1953 35.0757 54.6563 33.9198L48.596 20.9257C48.0566 19.7699 46.6831 19.2701 45.5272 19.8088C44.3714 20.3478 43.8713 21.7217 44.4103 22.8776L50.4706 35.8717Z" fill="#F8F8F8"/>
			</g>
			<g filter="url(#filter4_i)">
			<path d="M99.0108 82.4614C98.4718 83.6172 98.9722 84.9911 100.128 85.5301L113.123 91.5898C113.439 91.7369 113.771 91.8065 114.098 91.8065C114.967 91.8065 115.8 91.313 116.192 90.4728C116.731 89.317 116.231 87.9431 115.075 87.4041L102.079 81.3445C100.924 80.8058 99.5498 81.3055 99.0108 82.4614Z" fill="#F8F8F8"/>
			</g>
			<g filter="url(#filter5_i)">
			<path d="M36.9881 53.539C37.5271 52.3832 37.027 51.0096 35.8712 50.4706L22.8764 44.4116C21.7209 43.8723 20.3467 44.3727 19.8077 45.5286C19.2687 46.6844 19.7691 48.058 20.9249 48.597L33.9197 54.656C34.2354 54.8031 34.5672 54.8727 34.8938 54.8727C35.7636 54.8727 36.5962 54.3792 36.9881 53.539Z" fill="#F8F8F8"/>
			</g>
			<g filter="url(#filter6_i)">
			<path d="M53.5394 99.0117C52.3839 98.473 51.0097 98.9728 50.4707 100.129L44.4107 113.124C43.8717 114.28 44.3721 115.654 45.5276 116.193C45.8433 116.34 46.1755 116.41 46.5021 116.41C47.3719 116.41 48.2045 115.916 48.5964 115.076L54.6564 102.08C55.195 100.925 54.6953 99.5507 53.5394 99.0117Z" fill="#F8F8F8"/>
			</g>
			<g filter="url(#filter7_i)">
			<path d="M82.4606 36.9885C82.7763 37.1357 83.1081 37.2053 83.435 37.2053C84.3046 37.2053 85.1375 36.7114 85.5294 35.8716L91.5893 22.8772C92.1283 21.7217 91.6283 20.3474 90.4724 19.8084C89.3179 19.2701 87.9433 19.7695 87.4037 20.9254L81.3437 33.9198C80.805 35.0756 81.3051 36.4495 82.4606 36.9885Z" fill="#F8F8F8"/>
			</g>
			<g filter="url(#filter8_i)">
			<path d="M44.1983 91.8019C43.2968 90.9004 41.8345 90.9004 40.933 91.8019L19.9169 112.818C19.0153 113.72 19.0153 115.181 19.9169 116.083C20.3678 116.534 20.9586 116.76 21.5497 116.76C22.1405 116.76 22.7316 116.534 23.1822 116.083L44.1983 95.0672C45.1002 94.1657 45.1002 92.7034 44.1983 91.8019Z" fill="#F8F8F8"/>
			</g>
			<g filter="url(#filter9_i)">
			<path d="M91.8036 44.1961C92.2542 44.647 92.8453 44.8723 93.4361 44.8723C94.0272 44.8723 94.618 44.6467 95.0689 44.1961L116.083 23.182C116.985 22.2804 116.985 20.8181 116.083 19.9166C115.181 19.0151 113.719 19.0151 112.817 19.9166L91.8036 40.9308C90.9014 41.8323 90.9014 43.2946 91.8036 44.1961Z" fill="#F8F8F8"/>
			</g>
			<g filter="url(#filter10_i)">
			<path d="M40.933 44.1983C41.3836 44.6492 41.9747 44.8745 42.5655 44.8745C43.1566 44.8745 43.7474 44.6488 44.1983 44.1983C45.0999 43.2967 45.0999 41.8344 44.1983 40.9329L23.1822 19.9171C22.2807 19.0156 20.8184 19.0156 19.9169 19.9171C19.0153 20.8186 19.0153 22.2809 19.9169 23.1825L40.933 44.1983Z" fill="#F8F8F8"/>
			</g>
			<g filter="url(#filter11_i)">
			<path d="M95.0692 91.8038C94.1677 90.9023 92.7054 90.9023 91.8038 91.8038C90.902 92.7054 90.902 94.1676 91.8038 95.0692L112.818 116.083C113.269 116.534 113.859 116.76 114.45 116.76C115.041 116.76 115.632 116.534 116.083 116.083C116.985 115.181 116.985 113.719 116.083 112.818L95.0692 91.8038Z" fill="#F8F8F8"/>
			</g>
			<g filter="url(#filter12_i)">
			<path d="M68.0015 41.511C53.3937 41.511 41.5093 53.3938 41.5093 67.9999C41.5093 82.6058 53.3934 94.4885 68.0015 94.4885C82.607 94.4885 94.4898 82.6058 94.4898 67.9999C94.4898 53.3941 82.6073 41.511 68.0015 41.511ZM68.0015 89.8704C62.8078 89.8704 58.0336 88.0486 54.2787 85.0131C54.2698 85.0059 54.2613 84.9986 54.2524 84.9913C53.9591 84.7538 53.6721 84.5091 53.3917 84.2571C53.3789 84.2452 53.366 84.233 53.3528 84.2211C53.0718 83.9671 52.7967 83.7062 52.5291 83.438C52.5215 83.4304 52.5143 83.4225 52.5064 83.4146C52.2346 83.1411 51.9693 82.8611 51.7117 82.5738C51.7097 82.5711 51.7074 82.5685 51.7051 82.5662C51.4439 82.2739 51.1899 81.9751 50.9441 81.6693C50.9128 81.6303 50.8824 81.5904 50.8514 81.5515C50.6446 81.2909 50.444 81.0254 50.2491 80.7552C50.2069 80.6965 50.165 80.6374 50.1234 80.5787C49.9413 80.3211 49.7655 80.0595 49.5946 79.794C49.5524 79.7283 49.5095 79.6633 49.4683 79.597C49.2978 79.3256 49.1338 79.0498 48.9748 78.7707C48.9415 78.712 48.9065 78.654 48.8735 78.5949C48.6961 78.2766 48.5265 77.9533 48.3649 77.6251C48.3557 77.6063 48.3451 77.5878 48.3359 77.5687C47.9915 76.8644 47.6847 76.1387 47.4165 75.3949C47.3858 75.3104 47.3591 75.224 47.3294 75.1389C47.2335 74.8618 47.1411 74.5831 47.056 74.301C47.0187 74.178 46.9851 74.0536 46.9501 73.9296C46.8802 73.6812 46.8132 73.4318 46.7515 73.1798C46.7172 73.0393 46.6849 72.8981 46.6535 72.7563C46.5998 72.5155 46.5506 72.2733 46.5048 72.0296C46.4771 71.8815 46.4497 71.7334 46.4249 71.5843C46.384 71.3388 46.3494 71.0914 46.3171 70.843C46.298 70.6963 46.2772 70.5498 46.261 70.402C46.2313 70.1335 46.2102 69.863 46.1904 69.5919C46.1812 69.4635 46.1683 69.3365 46.1611 69.2076C46.1393 68.8074 46.1261 68.405 46.1261 67.9996C46.1261 55.94 55.9386 46.1288 68.0002 46.1288C68.4056 46.1288 68.808 46.142 69.2082 46.1638C69.3372 46.1707 69.4641 46.1839 69.5921 46.1931C69.8633 46.2129 70.1341 46.234 70.4026 46.2637C70.5504 46.2799 70.6969 46.3006 70.8436 46.3198C71.0917 46.3521 71.3388 46.3867 71.5845 46.4273C71.734 46.4521 71.8821 46.4794 72.0305 46.5071C72.274 46.553 72.5157 46.6021 72.7562 46.6556C72.8981 46.6873 73.0399 46.7196 73.1808 46.7539C73.4321 46.8152 73.6815 46.8822 73.9292 46.9521C74.0532 46.9871 74.1783 47.0211 74.3016 47.0583C74.5837 47.1435 74.8621 47.2355 75.1392 47.3315C75.2243 47.3612 75.311 47.3879 75.3955 47.4186C76.139 47.6871 76.8644 47.9935 77.5683 48.3376C77.5894 48.3478 77.6102 48.3593 77.631 48.3699C77.9566 48.5305 78.2779 48.6991 78.5942 48.8749C78.6549 48.9086 78.7139 48.9442 78.774 48.9785C79.0517 49.1365 79.3262 49.2998 79.596 49.4693C79.6633 49.5112 79.7293 49.5548 79.7959 49.5977C80.0605 49.7679 80.321 49.943 80.5773 50.1241C80.6374 50.1667 80.6974 50.2092 80.7571 50.2521C81.026 50.4458 81.2902 50.6456 81.5495 50.8512C81.59 50.8832 81.6309 50.9145 81.6712 50.9465C81.9776 51.1929 82.2775 51.4476 82.5704 51.7098C82.5717 51.7108 82.573 51.7121 82.5744 51.7131C82.862 51.9707 83.1421 52.2363 83.4159 52.5081C83.4234 52.5157 83.4314 52.5232 83.4393 52.5308C83.7071 52.798 83.9674 53.0725 84.2211 53.3532C84.2333 53.3667 84.2461 53.3799 84.2583 53.3934C84.51 53.6735 84.7544 53.9601 84.992 54.2531C84.9992 54.262 85.0065 54.2709 85.0137 54.2798C88.0488 58.0337 89.8703 62.8068 89.8703 67.9993C89.8717 80.0595 80.0608 89.8704 68.0015 89.8704Z" fill="#F8F8F8"/>
			</g>
			<g filter="url(#filter13_i)">
			<path d="M20.9249 87.4045C19.7691 87.9435 19.2687 89.3174 19.8077 90.4732C20.1996 91.3134 21.0325 91.8069 21.902 91.8069C22.2289 91.8069 22.5607 91.7373 22.8764 91.5902L35.8719 85.5305C37.0277 84.9915 37.5278 83.6176 36.9888 82.4618C36.4498 81.3059 35.0752 80.8058 33.9204 81.3448L20.9249 87.4045Z" fill="#F8F8F8"/>
			</g>
			<g filter="url(#filter14_i)">
			<path d="M115.075 48.597C116.231 48.058 116.731 46.6845 116.192 45.5286C115.653 44.3724 114.279 43.8724 113.124 44.4117L100.13 50.4707C98.9737 51.0097 98.4733 52.3832 99.0123 53.5391C99.4041 54.3793 100.237 54.8731 101.107 54.8731C101.433 54.8731 101.765 54.8035 102.081 54.6564L115.075 48.597Z" fill="#F8F8F8"/>
			</g>
			<g filter="url(#filter15_i)">
			<path d="M68 103.169C66.7247 103.169 65.6909 104.203 65.6909 105.478V133.691C65.6909 134.966 66.7247 136 68 136C69.2752 136 70.309 134.966 70.309 133.691V105.478C70.309 104.203 69.2752 103.169 68 103.169Z" fill="#F8F8F8"/>
			</g>
			<g filter="url(#filter16_i)">
			<path d="M68 32.8313C69.2752 32.8313 70.309 31.7975 70.309 30.5222V2.30907C70.309 1.0338 69.2752 0 68 0C66.7247 0 65.6909 1.0338 65.6909 2.30907V30.5222C65.6909 31.7978 66.7244 32.8313 68 32.8313Z" fill="#F8F8F8"/>
			</g>
			<g filter="url(#filter17_i)">
			<path d="M56.8876 56.2969C50.0736 60.4889 50.167 67.7614 50.1742 68.0692C50.2042 69.3257 51.2318 70.3235 52.4816 70.3235C52.5001 70.3235 52.5189 70.3232 52.5374 70.3228C53.8123 70.2925 54.8214 69.2346 54.791 67.9597C54.79 67.9109 54.728 63.0476 59.3075 60.2302C60.3938 59.5623 60.7322 58.1399 60.0643 57.0536C59.3959 55.9674 57.9739 55.628 56.8876 56.2969Z" fill="#F8F8F8"/>
			</g>
			<defs>
			<filter id="filter0_i" x="-1" y="65.6909" width="35.3394" height="5.61813" filterUnits="userSpaceOnUse" color-interpolation-filters="sRGB">
			<feFlood flood-opacity="0" result="BackgroundImageFix"/>
			<feBlend mode="normal" in="SourceGraphic" in2="BackgroundImageFix" result="shape"/>
			<feColorMatrix in="SourceAlpha" type="matrix" values="0 0 0 0 0 0 0 0 0 0 0 0 0 0 0 0 0 0 127 0" result="hardAlpha"/>
			<feOffset dx="-1" dy="1"/>
			<feGaussianBlur stdDeviation="2"/>
			<feComposite in2="hardAlpha" operator="arithmetic" k2="-1" k3="1"/>
			<feColorMatrix type="matrix" values="0 0 0 0 0 0 0 0 0 0 0 0 0 0 0 0 0 0 0.42 0"/>
			<feBlend mode="normal" in2="shape" result="effect1_innerShadow"/>
			</filter>
			<filter id="filter1_i" x="100.663" y="65.6909" width="35.3368" height="5.61813" filterUnits="userSpaceOnUse" color-interpolation-filters="sRGB">
			<feFlood flood-opacity="0" result="BackgroundImageFix"/>
			<feBlend mode="normal" in="SourceGraphic" in2="BackgroundImageFix" result="shape"/>
			<feColorMatrix in="SourceAlpha" type="matrix" values="0 0 0 0 0 0 0 0 0 0 0 0 0 0 0 0 0 0 127 0" result="hardAlpha"/>
			<feOffset dx="-1" dy="1"/>
			<feGaussianBlur stdDeviation="2"/>
			<feComposite in2="hardAlpha" operator="arithmetic" k2="-1" k3="1"/>
			<feColorMatrix type="matrix" values="0 0 0 0 0 0 0 0 0 0 0 0 0 0 0 0 0 0 0.42 0"/>
			<feBlend mode="normal" in2="shape" result="effect1_innerShadow"/>
			</filter>
			<filter id="filter2_i" x="80.1265" y="98.7952" width="11.6794" height="18.6144" filterUnits="userSpaceOnUse" color-interpolation-filters="sRGB">
			<feFlood flood-opacity="0" result="BackgroundImageFix"/>
			<feBlend mode="normal" in="SourceGraphic" in2="BackgroundImageFix" result="shape"/>
			<feColorMatrix in="SourceAlpha" type="matrix" values="0 0 0 0 0 0 0 0 0 0 0 0 0 0 0 0 0 0 127 0" result="hardAlpha"/>
			<feOffset dx="-1" dy="1"/>
			<feGaussianBlur stdDeviation="2"/>
			<feComposite in2="hardAlpha" operator="arithmetic" k2="-1" k3="1"/>
			<feColorMatrix type="matrix" values="0 0 0 0 0 0 0 0 0 0 0 0 0 0 0 0 0 0 0.42 0"/>
			<feBlend mode="normal" in2="shape" result="effect1_innerShadow"/>
			</filter>
			<filter id="filter3_i" x="43.1934" y="19.592" width="11.6798" height="18.6133" filterUnits="userSpaceOnUse" color-interpolation-filters="sRGB">
			<feFlood flood-opacity="0" result="BackgroundImageFix"/>
			<feBlend mode="normal" in="SourceGraphic" in2="BackgroundImageFix" result="shape"/>
			<feColorMatrix in="SourceAlpha" type="matrix" values="0 0 0 0 0 0 0 0 0 0 0 0 0 0 0 0 0 0 127 0" result="hardAlpha"/>
			<feOffset dx="-1" dy="1"/>
			<feGaussianBlur stdDeviation="2"/>
			<feComposite in2="hardAlpha" operator="arithmetic" k2="-1" k3="1"/>
			<feColorMatrix type="matrix" values="0 0 0 0 0 0 0 0 0 0 0 0 0 0 0 0 0 0 0.42 0"/>
			<feBlend mode="normal" in2="shape" result="effect1_innerShadow"/>
			</filter>
			<filter id="filter4_i" x="97.7939" y="81.1277" width="18.6149" height="11.6788" filterUnits="userSpaceOnUse" color-interpolation-filters="sRGB">
			<feFlood flood-opacity="0" result="BackgroundImageFix"/>
			<feBlend mode="normal" in="SourceGraphic" in2="BackgroundImageFix" result="shape"/>
			<feColorMatrix in="SourceAlpha" type="matrix" values="0 0 0 0 0 0 0 0 0 0 0 0 0 0 0 0 0 0 127 0" result="hardAlpha"/>
			<feOffset dx="-1" dy="1"/>
			<feGaussianBlur stdDeviation="2"/>
			<feComposite in2="hardAlpha" operator="arithmetic" k2="-1" k3="1"/>
			<feColorMatrix type="matrix" values="0 0 0 0 0 0 0 0 0 0 0 0 0 0 0 0 0 0 0.42 0"/>
			<feBlend mode="normal" in2="shape" result="effect1_innerShadow"/>
			</filter>
			<filter id="filter5_i" x="18.5908" y="44.1946" width="18.6142" height="11.6781" filterUnits="userSpaceOnUse" color-interpolation-filters="sRGB">
			<feFlood flood-opacity="0" result="BackgroundImageFix"/>
			<feBlend mode="normal" in="SourceGraphic" in2="BackgroundImageFix" result="shape"/>
			<feColorMatrix in="SourceAlpha" type="matrix" values="0 0 0 0 0 0 0 0 0 0 0 0 0 0 0 0 0 0 127 0" result="hardAlpha"/>
			<feOffset dx="-1" dy="1"/>
			<feGaussianBlur stdDeviation="2"/>
			<feComposite in2="hardAlpha" operator="arithmetic" k2="-1" k3="1"/>
			<feColorMatrix type="matrix" values="0 0 0 0 0 0 0 0 0 0 0 0 0 0 0 0 0 0 0.42 0"/>
			<feBlend mode="normal" in2="shape" result="effect1_innerShadow"/>
			</filter>
			<filter id="filter6_i" x="43.1938" y="98.7949" width="11.6793" height="18.6146" filterUnits="userSpaceOnUse" color-interpolation-filters="sRGB">
			<feFlood flood-opacity="0" result="BackgroundImageFix"/>
			<feBlend mode="normal" in="SourceGraphic" in2="BackgroundImageFix" result="shape"/>
			<feColorMatrix in="SourceAlpha" type="matrix" values="0 0 0 0 0 0 0 0 0 0 0 0 0 0 0 0 0 0 127 0" result="hardAlpha"/>
			<feOffset dx="-1" dy="1"/>
			<feGaussianBlur stdDeviation="2"/>
			<feComposite in2="hardAlpha" operator="arithmetic" k2="-1" k3="1"/>
			<feColorMatrix type="matrix" values="0 0 0 0 0 0 0 0 0 0 0 0 0 0 0 0 0 0 0.42 0"/>
			<feBlend mode="normal" in2="shape" result="effect1_innerShadow"/>
			</filter>
			<filter id="filter7_i" x="80.127" y="19.5918" width="11.6793" height="18.6135" filterUnits="userSpaceOnUse" color-interpolation-filters="sRGB">
			<feFlood flood-opacity="0" result="BackgroundImageFix"/>
			<feBlend mode="normal" in="SourceGraphic" in2="BackgroundImageFix" result="shape"/>
			<feColorMatrix in="SourceAlpha" type="matrix" values="0 0 0 0 0 0 0 0 0 0 0 0 0 0 0 0 0 0 127 0" result="hardAlpha"/>
			<feOffset dx="-1" dy="1"/>
			<feGaussianBlur stdDeviation="2"/>
			<feComposite in2="hardAlpha" operator="arithmetic" k2="-1" k3="1"/>
			<feColorMatrix type="matrix" values="0 0 0 0 0 0 0 0 0 0 0 0 0 0 0 0 0 0 0.42 0"/>
			<feBlend mode="normal" in2="shape" result="effect1_innerShadow"/>
			</filter>
			<filter id="filter8_i" x="18.2407" y="91.1257" width="26.634" height="26.6338" filterUnits="userSpaceOnUse" color-interpolation-filters="sRGB">
			<feFlood flood-opacity="0" result="BackgroundImageFix"/>
			<feBlend mode="normal" in="SourceGraphic" in2="BackgroundImageFix" result="shape"/>
			<feColorMatrix in="SourceAlpha" type="matrix" values="0 0 0 0 0 0 0 0 0 0 0 0 0 0 0 0 0 0 127 0" result="hardAlpha"/>
			<feOffset dx="-1" dy="1"/>
			<feGaussianBlur stdDeviation="2"/>
			<feComposite in2="hardAlpha" operator="arithmetic" k2="-1" k3="1"/>
			<feColorMatrix type="matrix" values="0 0 0 0 0 0 0 0 0 0 0 0 0 0 0 0 0 0 0.42 0"/>
			<feBlend mode="normal" in2="shape" result="effect1_innerShadow"/>
			</filter>
			<filter id="filter9_i" x="90.127" y="19.2405" width="26.6322" height="26.6319" filterUnits="userSpaceOnUse" color-interpolation-filters="sRGB">
			<feFlood flood-opacity="0" result="BackgroundImageFix"/>
			<feBlend mode="normal" in="SourceGraphic" in2="BackgroundImageFix" result="shape"/>
			<feColorMatrix in="SourceAlpha" type="matrix" values="0 0 0 0 0 0 0 0 0 0 0 0 0 0 0 0 0 0 127 0" result="hardAlpha"/>
			<feOffset dx="-1" dy="1"/>
			<feGaussianBlur stdDeviation="2"/>
			<feComposite in2="hardAlpha" operator="arithmetic" k2="-1" k3="1"/>
			<feColorMatrix type="matrix" values="0 0 0 0 0 0 0 0 0 0 0 0 0 0 0 0 0 0 0.42 0"/>
			<feBlend mode="normal" in2="shape" result="effect1_innerShadow"/>
			</filter>
			<filter id="filter10_i" x="18.2407" y="19.241" width="26.6338" height="26.6335" filterUnits="userSpaceOnUse" color-interpolation-filters="sRGB">
			<feFlood flood-opacity="0" result="BackgroundImageFix"/>
			<feBlend mode="normal" in="SourceGraphic" in2="BackgroundImageFix" result="shape"/>
			<feColorMatrix in="SourceAlpha" type="matrix" values="0 0 0 0 0 0 0 0 0 0 0 0 0 0 0 0 0 0 127 0" result="hardAlpha"/>
			<feOffset dx="-1" dy="1"/>
			<feGaussianBlur stdDeviation="2"/>
			<feComposite in2="hardAlpha" operator="arithmetic" k2="-1" k3="1"/>
			<feColorMatrix type="matrix" values="0 0 0 0 0 0 0 0 0 0 0 0 0 0 0 0 0 0 0.42 0"/>
			<feBlend mode="normal" in2="shape" result="effect1_innerShadow"/>
			</filter>
			<filter id="filter11_i" x="90.1274" y="91.1277" width="26.6319" height="26.6318" filterUnits="userSpaceOnUse" color-interpolation-filters="sRGB">
			<feFlood flood-opacity="0" result="BackgroundImageFix"/>
			<feBlend mode="normal" in="SourceGraphic" in2="BackgroundImageFix" result="shape"/>
			<feColorMatrix in="SourceAlpha" type="matrix" values="0 0 0 0 0 0 0 0 0 0 0 0 0 0 0 0 0 0 127 0" result="hardAlpha"/>
			<feOffset dx="-1" dy="1"/>
			<feGaussianBlur stdDeviation="2"/>
			<feComposite in2="hardAlpha" operator="arithmetic" k2="-1" k3="1"/>
			<feColorMatrix type="matrix" values="0 0 0 0 0 0 0 0 0 0 0 0 0 0 0 0 0 0 0.42 0"/>
			<feBlend mode="normal" in2="shape" result="effect1_innerShadow"/>
			</filter>
			<filter id="filter12_i" x="40.5093" y="41.511" width="53.9805" height="53.9776" filterUnits="userSpaceOnUse" color-interpolation-filters="sRGB">
			<feFlood flood-opacity="0" result="BackgroundImageFix"/>
			<feBlend mode="normal" in="SourceGraphic" in2="BackgroundImageFix" result="shape"/>
			<feColorMatrix in="SourceAlpha" type="matrix" values="0 0 0 0 0 0 0 0 0 0 0 0 0 0 0 0 0 0 127 0" result="hardAlpha"/>
			<feOffset dx="-1" dy="1"/>
			<feGaussianBlur stdDeviation="2"/>
			<feComposite in2="hardAlpha" operator="arithmetic" k2="-1" k3="1"/>
			<feColorMatrix type="matrix" values="0 0 0 0 0 0 0 0 0 0 0 0 0 0 0 0 0 0 0.42 0"/>
			<feBlend mode="normal" in2="shape" result="effect1_innerShadow"/>
			</filter>
			<filter id="filter13_i" x="18.5908" y="81.1279" width="18.6149" height="11.679" filterUnits="userSpaceOnUse" color-interpolation-filters="sRGB">
			<feFlood flood-opacity="0" result="BackgroundImageFix"/>
			<feBlend mode="normal" in="SourceGraphic" in2="BackgroundImageFix" result="shape"/>
			<feColorMatrix in="SourceAlpha" type="matrix" values="0 0 0 0 0 0 0 0 0 0 0 0 0 0 0 0 0 0 127 0" result="hardAlpha"/>
			<feOffset dx="-1" dy="1"/>
			<feGaussianBlur stdDeviation="2"/>
			<feComposite in2="hardAlpha" operator="arithmetic" k2="-1" k3="1"/>
			<feColorMatrix type="matrix" values="0 0 0 0 0 0 0 0 0 0 0 0 0 0 0 0 0 0 0.42 0"/>
			<feBlend mode="normal" in2="shape" result="effect1_innerShadow"/>
			</filter>
			<filter id="filter14_i" x="97.7954" y="44.1946" width="18.6138" height="11.6785" filterUnits="userSpaceOnUse" color-interpolation-filters="sRGB">
			<feFlood flood-opacity="0" result="BackgroundImageFix"/>
			<feBlend mode="normal" in="SourceGraphic" in2="BackgroundImageFix" result="shape"/>
			<feColorMatrix in="SourceAlpha" type="matrix" values="0 0 0 0 0 0 0 0 0 0 0 0 0 0 0 0 0 0 127 0" result="hardAlpha"/>
			<feOffset dx="-1" dy="1"/>
			<feGaussianBlur stdDeviation="2"/>
			<feComposite in2="hardAlpha" operator="arithmetic" k2="-1" k3="1"/>
			<feColorMatrix type="matrix" values="0 0 0 0 0 0 0 0 0 0 0 0 0 0 0 0 0 0 0.42 0"/>
			<feBlend mode="normal" in2="shape" result="effect1_innerShadow"/>
			</filter>
			<filter id="filter15_i" x="64.6909" y="103.169" width="5.61812" height="33.8306" filterUnits="userSpaceOnUse" color-interpolation-filters="sRGB">
			<feFlood flood-opacity="0" result="BackgroundImageFix"/>
			<feBlend mode="normal" in="SourceGraphic" in2="BackgroundImageFix" result="shape"/>
			<feColorMatrix in="SourceAlpha" type="matrix" values="0 0 0 0 0 0 0 0 0 0 0 0 0 0 0 0 0 0 127 0" result="hardAlpha"/>
			<feOffset dx="-1" dy="1"/>
			<feGaussianBlur stdDeviation="2"/>
			<feComposite in2="hardAlpha" operator="arithmetic" k2="-1" k3="1"/>
			<feColorMatrix type="matrix" values="0 0 0 0 0 0 0 0 0 0 0 0 0 0 0 0 0 0 0.42 0"/>
			<feBlend mode="normal" in2="shape" result="effect1_innerShadow"/>
			</filter>
			<filter id="filter16_i" x="64.6909" y="0" width="5.61812" height="33.8313" filterUnits="userSpaceOnUse" color-interpolation-filters="sRGB">
			<feFlood flood-opacity="0" result="BackgroundImageFix"/>
			<feBlend mode="normal" in="SourceGraphic" in2="BackgroundImageFix" result="shape"/>
			<feColorMatrix in="SourceAlpha" type="matrix" values="0 0 0 0 0 0 0 0 0 0 0 0 0 0 0 0 0 0 127 0" result="hardAlpha"/>
			<feOffset dx="-1" dy="1"/>
			<feGaussianBlur stdDeviation="2"/>
			<feComposite in2="hardAlpha" operator="arithmetic" k2="-1" k3="1"/>
			<feColorMatrix type="matrix" values="0 0 0 0 0 0 0 0 0 0 0 0 0 0 0 0 0 0 0.42 0"/>
			<feBlend mode="normal" in2="shape" result="effect1_innerShadow"/>
			</filter>
			<filter id="filter17_i" x="49.1733" y="55.9539" width="11.2335" height="15.3696" filterUnits="userSpaceOnUse" color-interpolation-filters="sRGB">
			<feFlood flood-opacity="0" result="BackgroundImageFix"/>
			<feBlend mode="normal" in="SourceGraphic" in2="BackgroundImageFix" result="shape"/>
			<feColorMatrix in="SourceAlpha" type="matrix" values="0 0 0 0 0 0 0 0 0 0 0 0 0 0 0 0 0 0 127 0" result="hardAlpha"/>
			<feOffset dx="-1" dy="1"/>
			<feGaussianBlur stdDeviation="2"/>
			<feComposite in2="hardAlpha" operator="arithmetic" k2="-1" k3="1"/>
			<feColorMatrix type="matrix" values="0 0 0 0 0 0 0 0 0 0 0 0 0 0 0 0 0 0 0.42 0"/>
			<feBlend mode="normal" in2="shape" result="effect1_innerShadow"/>
			</filter>
			</defs>
		</symbol>

		<symbol id="temperature" title="temperature" version="1.1" id="Calque_1" xmlns="http://www.w3.org/2000/svg" xmlns:xlink="http://www.w3.org/1999/xlink" 
			viewBox="0 0 113.4 113.4" style="enable-background:new 0 0 113.4 113.4;" xml:space="preserve">
			<style type="text/css">
				.st0{fill:#F8F8F8;}
			</style>
			<path class="st0" d="M83.7,13.6L30.7,75c-1.9,2.2-2.3,5.1-1.3,7.6l-12,14c-1.3,1.5-1.1,3.7,0.4,5c1.5,1.3,3.7,1.1,5-0.4l12-14
				c2.6,0.6,5.5-0.2,7.3-2.4l53-61.4c2.7-3.1,2.4-7.9-0.8-10.6C91.2,10.1,86.4,10.4,83.7,13.6z M86.8,23.5l-4,4.7l2.3,2
				c0.4,0.3,0.4,0.9,0.1,1.2c-0.3,0.4-0.9,0.4-1.2,0.1l-2.3-2L77.8,34l2.3,2c0.4,0.3,0.4,0.9,0.1,1.3c-0.3,0.4-0.9,0.4-1.2,0.1l-2.3-2
				l-3.9,4.5l2.3,2c0.4,0.3,0.4,0.9,0.1,1.3c-0.3,0.4-0.9,0.4-1.2,0.1l-2.3-2l-3.9,4.5l2.3,2c0.4,0.3,0.4,0.9,0.1,1.3
				c-0.3,0.4-0.9,0.4-1.2,0.1l-2.3-2l-3.9,4.5l2.3,2c0.4,0.3,0.4,0.9,0.1,1.3c-0.3,0.4-0.9,0.4-1.2,0.1l-2.3-2l-3.9,4.5l2.3,2
				c0.4,0.3,0.4,0.9,0.1,1.3c-0.3,0.4-0.9,0.4-1.2,0.1l-2.3-2L52.7,63l2.3,2c0.4,0.3,0.4,0.9,0.1,1.3c-0.3,0.4-0.9,0.4-1.2,0.1l-2.3-2
				l-3.9,4.5l2.3,2c0.4,0.3,0.4,0.9,0.1,1.3c-0.3,0.4-0.9,0.4-1.2,0.1l-2.3-2l-3.9,4.5l2.3,2c0.4,0.3,0.4,0.9,0.1,1.2
				c-0.3,0.4-0.9,0.4-1.2,0.1l-2.3-2l-3.9,4.5l2.3,2c0.4,0.3,0.4,0.9,0.1,1.2c-0.3,0.4-0.9,0.4-1.2,0.1l-2.3-2l-0.7,0.8
				c-0.5,0.6-1.3,0.6-1.9,0.1c-0.6-0.5-0.6-1.3-0.1-1.9l51-59.1c0.5-0.6,1.3-0.6,1.9-0.1C87.3,22.1,87.3,22.9,86.8,23.5z"/>
		</symbol>
  </defs>
</svg>