<svg aria-hidden="true" version="1.1" xmlns="http://www.w3.org/2000/svg" xml:space="preserve">
  <defs>
		<symbol id="home" title="home" x="0px" y="0px" viewBox="0 0 36 36">
			<path class="st0" d="M32.5,12.9l-2.4-1.7V4.8c0-0.6-0.5-1.2-1.2-1.2h-4.7c-0.6,0-1.2,0.5-1.2,1.2v1.5l-4.4-3.1
				c-0.4-0.3-0.9-0.3-1.3,0L3.5,12.9C3,13.3,2.9,14,3.2,14.5c0.4,0.5,1.1,0.7,1.6,0.3L5.9,14v17.8c0,0.6,0.5,1.2,1.2,1.2h7.1
				c0.6,0,1.2-0.5,1.2-1.2v-9h5.3v9c0,0.6,0.5,1.2,1.2,1.2h7c0.6,0,1.2-0.5,1.2-1.2V14l1.1,0.8c0.5,0.4,1.3,0.2,1.6-0.3
				C33.1,14,33,13.3,32.5,12.9z M27.7,30.6H23v-9c0-0.6-0.5-1.2-1.2-1.2h-7.7c-0.6,0-1.2,0.5-1.2,1.2v9H8.3V12.4L18,5.6l5.5,3.9
				c0.4,0.2,0.8,0.3,1.2,0.1c0.4-0.2,0.6-0.6,0.6-1V5.9h2.3V30.6z"/>
		</symbol>
		
		<symbol id="graphs" title="graphs" x="0px" y="0px" viewBox="0 0 25 24">
			<path d="M23.1593 5.04394H18.2298C17.7256 5.04394 17.3169 5.45452 17.3169 5.96102V21.6431H15.7651V0.917081C15.7651 0.410577 15.3564 0 14.8522 0H9.92266C9.41848 0 9.00979 0.410577 9.00979 0.917081V21.6431H7.4579V12.3806C7.4579 11.8741 7.04921 11.4635 6.54503 11.4635H1.61551C1.11133 11.4635 0.702637 11.8741 0.702637 12.3806V22.5602C0.702637 23.0667 1.11133 23.4773 1.61551 23.4773H23.1593C23.6635 23.4773 24.0722 23.0667 24.0722 22.5602V5.96102C24.0722 5.45452 23.6635 5.04394 23.1593 5.04394ZM5.63215 21.6431H2.52838V13.2977H5.63215V21.6431ZM10.8355 1.83416H13.9393V21.6431H10.8355V1.83416ZM22.2465 21.6431H19.1427V6.8781H22.2465V21.6431Z"/>
		</symbol>

		<symbol id="settings" title="settings" x="0px" y="0px" viewBox="0 0 24 24">
			<path d="M22.8575 8.52885H21.96C21.6068 8.52885 21.2895 8.31301 21.1528 7.98209C21.0132 7.64648 21.0732 7.24076 21.3231 6.99086L21.9577 6.35628C22.3128 6.01476 22.3128 5.40082 21.9577 5.05935L18.7152 1.81701C18.3738 1.46173 17.7598 1.46183 17.4183 1.81701L16.7838 2.45154C16.5339 2.70144 16.1281 2.76138 15.7956 2.62303C15.4616 2.48515 15.2458 2.16784 15.2458 1.81458V0.917081C15.2458 0.410577 14.8352 0 14.3287 0H9.74329C9.23679 0 8.82621 0.410577 8.82621 0.917081V1.81458C8.82621 2.16784 8.61042 2.48515 8.27908 2.62193C7.94348 2.76151 7.53813 2.7014 7.28822 2.45154L6.65369 1.81701C6.31217 1.46183 5.69823 1.46178 5.35676 1.81701L2.11433 5.05935C1.75621 5.41747 1.75616 5.99816 2.11433 6.35628L2.7489 6.99086C2.99876 7.24076 3.06034 7.64244 2.92035 7.97901C2.78251 8.31301 2.46516 8.52885 2.11194 8.52885H1.21444C0.70794 8.52885 0.297363 8.93943 0.297363 9.44593V14.0313C0.297363 14.5378 0.70794 14.9484 1.21444 14.9484H2.11194C2.46516 14.9484 2.79205 15.1872 2.93048 15.5225C3.07006 15.8582 2.99876 16.2365 2.74886 16.4864L2.11433 17.121C1.75616 17.4791 1.75621 18.0598 2.11433 18.4179L5.35676 21.6602C5.69823 22.0155 6.31222 22.0154 6.65369 21.6602L7.28822 21.0257C7.53808 20.7758 7.9438 20.7159 8.27642 20.8542C8.61042 20.9921 8.82621 21.3094 8.82621 21.6627V22.5602C8.82621 23.0667 9.23679 23.4773 9.74329 23.4773H14.3287C14.8352 23.4773 15.2458 23.0667 15.2458 22.5602V21.6627C15.2458 21.3094 15.4616 20.9921 15.7929 20.8553C16.1285 20.7158 16.5339 20.7758 16.7838 21.0257L17.4183 21.6602C17.7598 22.0154 18.3738 22.0155 18.7152 21.6602L21.9577 18.4179C22.3128 18.0764 22.3128 17.4625 21.9576 17.1209L21.3231 16.4864C21.0732 16.2365 21.0019 15.8582 21.1419 15.5216C21.2798 15.1876 21.6068 14.9484 21.96 14.9484H22.8575C23.364 14.9484 23.7746 14.5378 23.7746 14.0313V9.44593C23.7746 8.93943 23.364 8.52885 22.8575 8.52885ZM21.9405 13.1143C20.8496 13.122 19.8691 13.798 19.4481 14.8181C19.0247 15.8361 19.2463 16.9923 20.0123 17.7694L18.0668 19.7149C17.2897 18.9489 16.1168 18.7341 15.0958 19.1588C14.0787 19.5786 13.4195 20.5522 13.4117 21.6431H10.6603C10.6525 20.5522 9.97618 19.5715 8.95648 19.1507C7.93839 18.7272 6.78231 18.9489 6.00527 19.7149L4.05973 17.7694C4.82572 16.9923 5.04743 15.8362 4.62433 14.8191C4.20454 13.8021 3.22235 13.1221 2.13152 13.1143V10.3629C3.22235 10.3552 4.19596 9.69588 4.61521 8.68017C5.03867 7.66216 4.82572 6.48495 4.05973 5.70786L6.00527 3.76232C6.78231 4.52831 7.93852 4.74993 8.9596 4.32527C9.97664 3.90548 10.6526 2.92494 10.6603 1.83412H13.4118C13.4195 2.92498 14.0788 3.8986 15.0985 4.31949C16.1166 4.74291 17.2897 4.52831 18.0668 3.76232L20.0123 5.70782C19.2463 6.48491 19.0331 7.66175 19.4562 8.67879C19.876 9.69583 20.8496 10.3551 21.9405 10.3629V13.1143H21.9405ZM12.036 6.23615C9.00192 6.23615 6.53351 8.70456 6.53351 11.7386C6.83578 19.0384 17.2374 19.0363 17.5385 11.7386C17.5385 8.70456 15.0701 6.23615 12.036 6.23615ZM12.036 15.407C10.0133 15.407 8.36767 13.7613 8.36767 11.7386C8.56915 6.8721 15.5036 6.87352 15.7043 11.7387C15.7043 13.7613 14.0587 15.407 12.036 15.407Z"/>
		</symbol>

		<symbol id="help" title="help" x="0px" y="0px" viewBox="0 0 23 23">
			<path d="M11.5011 23C5.15213 22.993 0.00697242 17.8484 0 11.5V11.27C0.126434 4.95023 5.33031 -0.0828295 11.6514 0.00103295C17.9726 0.0848954 23.0411 5.25424 22.9998 11.5751C22.9584 17.8961 17.8228 22.9987 11.5011 23ZM11.4827 20.7H11.5011C16.5809 20.6949 20.6954 16.5746 20.6929 11.4954C20.6903 6.4162 16.5717 2.30002 11.4919 2.30002C6.41222 2.30002 2.29357 6.4162 2.29103 11.4954C2.28849 16.5746 6.40302 20.6949 11.4827 20.7ZM12.6513 18.4H10.351V16.1H12.6513V18.4ZM12.6513 14.95H10.351C10.3147 13.4523 11.0942 12.0529 12.3867 11.2953C13.1458 10.7134 13.8014 10.212 13.8014 9.20001C13.8014 7.92976 12.7715 6.90001 11.5011 6.90001C10.2308 6.90001 9.20092 7.92976 9.20092 9.20001H6.90069V9.09651C6.91918 7.45309 7.81311 5.94437 9.24574 5.13867C10.6784 4.33298 12.4321 4.3527 13.8462 5.19042C15.2603 6.02815 16.1201 7.55659 16.1016 9.20001C16.0193 10.4409 15.3536 11.5693 14.3074 12.2418C13.3617 12.8354 12.7487 13.8377 12.6513 14.95Z"/>
		</symbol>

		<symbol id="logo" title="logo" width="39" height="34" viewBox="0 0 39 34">
			<path d="M21.3828 11.1181C30.4855 13.6162 40.571 3.29014 38.073 12.3929C35.5749 21.4956 25.5847 29.4348 16.482 26.9367C7.37922 24.4387 2.02509 15.0344 4.52317 5.93162C7.02126 -3.17111 12.28 8.62003 21.3828 11.1181Z" fill="#37B874"/>
			<path d="M17.8168 10.8048C17.8406 11.0221 17.7335 11.2381 17.5772 11.3905C17.3961 11.5664 17.1922 11.6387 16.963 11.7299C16.7134 11.8298 16.4678 11.9462 16.2497 12.1053C15.348 12.7643 15.4961 13.9623 15.8903 14.8735C15.8973 14.8897 15.9041 14.9058 15.9117 14.9216C16.0137 13.2766 17.5265 12.6239 17.7437 12.5029C17.5616 12.6043 16.9015 13.0963 16.5321 13.7048C16.2575 14.157 16.102 14.6618 16.1249 15.1962C16.2272 14.8567 16.5305 14.6171 16.8438 14.451C17.1571 14.2848 17.4995 14.1698 17.7866 13.9615C18.2729 13.6087 18.552 13.0019 18.544 12.4008C18.536 11.7998 18.2545 11.2165 17.8168 10.8048Z" fill="#F8F8F8"/>
			<path d="M14.2809 20.28C15.232 22.9386 15.1372 27.1096 15.0525 28.7813C15.0502 28.8273 15.0586 28.8732 15.0771 28.9163C15.0956 28.9593 15.1238 28.9987 15.1602 29.032C15.1965 29.0653 15.2402 29.0918 15.2886 29.1099C15.3369 29.128 15.389 29.1374 15.4416 29.1375C15.4943 29.1376 15.5464 29.1284 15.5948 29.1105C15.6433 29.0925 15.6871 29.0661 15.7236 29.033C15.7601 28.9998 15.7885 28.9606 15.8072 28.9176C15.8259 28.8745 15.8345 28.8287 15.8324 28.7827C15.7954 27.9272 15.7421 27.0723 15.6725 26.218C15.5584 24.8523 15.4003 23.4875 15.1519 22.1352C14.8986 20.7585 14.8189 19.3636 14.05 18.1111C12.8319 16.1261 10.7302 14.2935 8.25082 13.5298C8.95533 13.7467 13.7627 14.7644 14.9002 18.975C14.9141 18.9306 14.9265 18.8857 14.9388 18.8412C15.6433 16.3064 15.4739 13.141 12.4724 11.8382C11.7462 11.5231 10.9609 11.3322 10.1712 11.1838C9.44678 11.0476 8.80621 10.9514 8.18162 10.5761C7.64108 10.2514 7.21426 9.73979 7.17452 9.16766C6.08818 10.427 5.55037 12.0633 5.83172 13.6209C6.11307 15.1785 7.2476 16.6253 8.86513 17.3227C9.82016 17.7343 10.8912 17.8818 11.9024 18.1706L11.9205 18.1758C12.4768 18.3374 12.981 18.6125 13.3915 18.9784C13.802 19.3443 14.1069 19.7905 14.2809 20.28Z" fill="#F8F8F8"/>
			<path d="M22.589 18.0586C19.8417 20.5954 17.101 25.494 16.0488 27.4843C16.0198 27.539 15.9804 27.5875 15.9328 27.6268C15.8852 27.6661 15.8305 27.6955 15.7719 27.7131C15.7134 27.7307 15.6522 27.7362 15.592 27.7293C15.5318 27.7223 15.474 27.7031 15.4218 27.6728C15.3697 27.6424 15.3245 27.6015 15.2887 27.5526C15.253 27.5037 15.2276 27.4478 15.2141 27.3882C15.2005 27.3285 15.199 27.2665 15.2097 27.2057C15.2205 27.1449 15.2432 27.0867 15.2765 27.0345C15.8944 26.0624 16.5281 25.1005 17.1774 24.1487C18.2185 22.6288 19.3022 21.1355 20.4669 19.7089C21.6529 18.2567 22.6796 16.683 24.2913 15.6736C26.845 14.0735 30.169 13.1618 33.1402 13.71C32.296 13.5541 26.8497 11.9534 22.8633 16.1847C22.8796 16.1252 22.898 16.0658 22.916 16.007C23.9417 12.6557 26.2603 9.07794 30.1143 9.3022C31.0467 9.35657 31.9532 9.58943 32.8351 9.87418C33.6441 10.1353 34.3431 10.3943 35.2158 10.32C35.9711 10.2558 36.7409 9.90871 37.169 9.26732C37.3878 11.3584 36.8077 13.5699 35.471 15.2159C34.1342 16.8619 32.0289 17.8853 29.9552 17.7589C28.7309 17.6841 27.5713 17.2356 26.3749 16.9857L26.3535 16.9813C25.6935 16.8469 25.0078 16.8746 24.3532 17.0619C23.6985 17.2493 23.0938 17.5909 22.589 18.0586Z" fill="#F8F8F8"/>
		</symbol>

		<symbol id="logOut" title="logOut" viewBox="0 0 19 19">
			<path d="M13.3965 4.45312V2.96875C13.3965 1.33173 12.0648 0 10.4277 0H2.96875C1.33173 0 0 1.33173 0 2.96875V16.0312C0 17.6683 1.33173 19 2.96875 19H10.4277C12.0648 19 13.3965 17.6683 13.3965 16.0312V14.5469C13.3965 14.1369 13.0642 13.8047 12.6543 13.8047C12.2444 13.8047 11.9121 14.1369 11.9121 14.5469V16.0312C11.9121 16.8497 11.2462 17.5156 10.4277 17.5156H2.96875C2.15031 17.5156 1.48438 16.8497 1.48438 16.0312V2.96875C1.48438 2.15031 2.15031 1.48438 2.96875 1.48438H10.4277C11.2462 1.48438 11.9121 2.15031 11.9121 2.96875V4.45312C11.9121 4.86307 12.2444 5.19531 12.6543 5.19531C13.0642 5.19531 13.3965 4.86307 13.3965 4.45312ZM18.4566 10.7749L16.7946 12.4369C16.5047 12.7268 16.0347 12.7268 15.745 12.4369C15.455 12.1471 15.455 11.6771 15.745 11.3874L16.9271 10.2051H8.01562C7.60568 10.2051 7.27344 9.87283 7.27344 9.46289C7.27344 9.05295 7.60568 8.7207 8.01562 8.7207H16.9271L15.745 7.53842C15.455 7.24865 15.455 6.77869 15.745 6.48892C15.8899 6.34396 16.0798 6.27148 16.2697 6.27148C16.4597 6.27148 16.6496 6.34396 16.7946 6.48892L18.4566 8.15087C19.18 8.87436 19.18 10.0514 18.4566 10.7749Z" fill="#2B2B2B"/>
		</symbol>

		<symbol id="card-arrow" title="card-arrow" width="16" height="13" viewBox="0 0 16 13">
			<path d="M8 13L15.2169 0.5L0.783121 0.5L8 13ZM9.25 1.75L9.25 1L6.75 1L6.75 1.75L9.25 1.75Z" fill="#2B2B2B"/>
		</symbol>
		
		<symbol id="card-shape" title="card-shape" width="268" height="344" viewBox="0 0 268 344">
			<path d="M261.055 323.912C260.443 330.877 255.26 336.45 248.325 337.338C231.241 339.526 194.75 343 135.247 343C73.8898 343 38.0065 339.51 21.5424 337.323C14.914 336.442 9.91992 331.232 9.12406 324.592C6.45578 302.334 0.999978 247.581 0.999984 172C0.999991 96.6039 6.42913 41.9342 9.10443 19.5716C9.90796 12.8551 14.9914 7.59013 21.6999 6.72215C38.5808 4.538 75.1938 1.00001 135.247 1.00002C194.75 1.00002 231.241 4.47354 248.325 6.66186C255.26 7.55011 260.443 13.1229 261.055 20.0876C263.048 42.7672 267 97.1776 267 172C267 246.822 263.048 301.233 261.055 323.912Z" fill="#F4F4F4" stroke-width="2"/>
		</symbol>

		<symbol id="settingsCta" title="settingsCta" viewBox="0 0 25 24">
			<path d="M7.87842 21.5C6.33253 21.4935 4.97168 20.4795 4.52342 19H2.37842V17H4.52342C5.03832 15.273 6.78046 14.2192 8.54912 14.565C10.3178 14.9108 11.5347 16.5431 11.3613 18.3369C11.1878 20.1307 9.68057 21.4995 7.87842 21.5ZM7.87842 16.5C7.04999 16.5 6.37842 17.1716 6.37842 18C6.37842 18.8284 7.04999 19.5 7.87842 19.5C8.70685 19.5 9.37842 18.8284 9.37842 18C9.37842 17.1716 8.70685 16.5 7.87842 16.5ZM22.3784 19H12.3784V17H22.3784V19ZM16.8784 15.5C15.0763 15.4995 13.5691 14.1307 13.3956 12.3369C13.2221 10.5431 14.4391 8.91084 16.2077 8.56503C17.9764 8.21923 19.7185 9.27297 20.2334 11H22.3784V13H20.2334C19.7852 14.4795 18.4243 15.4935 16.8784 15.5ZM16.8784 10.5C16.05 10.5 15.3784 11.1716 15.3784 12C15.3784 12.8284 16.05 13.5 16.8784 13.5C17.7068 13.5 18.3784 12.8284 18.3784 12C18.3784 11.1716 17.7068 10.5 16.8784 10.5ZM12.3784 13H2.37842V11H12.3784V13ZM9.87842 9.49999C8.07627 9.49953 6.56905 8.1307 6.39557 6.33692C6.22209 4.54314 7.43906 2.91084 9.20772 2.56503C10.9764 2.21923 12.7185 3.27297 13.2334 4.99999H22.3784V6.99999H13.2334C12.7849 8.47928 11.4242 9.49321 9.87842 9.49999ZM9.87842 4.49999C9.0604 4.5011 8.3941 5.15742 8.38065 5.97534C8.3672 6.79325 9.01157 7.47112 9.82911 7.49911C10.6467 7.52711 11.3359 6.89491 11.3784 6.07799V6.36799V5.99999C11.3784 5.17157 10.7068 4.49999 9.87842 4.49999ZM5.37842 6.99999H2.37842V4.99999H5.37842V6.99999Z" fill="#2B2B2B"/>
		</symbol>

		<symbol id="cardAlert" title="cardAlert" width="54" height="54" viewBox="0 0 54 54" fill="none" xmlns="http://www.w3.org/2000/svg">
			<g filter="url(#filter0_d)">
			<circle cx="29" cy="25" r="17" fill="#FF3B30"/>
			<path d="M26.6543 27H30.3418V26.625C30.3418 25.3828 30.9277 24.7578 32.0605 24.0938C33.584 23.2031 34.623 22.0859 34.623 20.1875C34.623 17.25 32.1465 15.7812 28.8105 15.7812C25.7715 15.7812 23.248 17.2188 23.2168 20.6562H27.2168C27.2168 19.7578 27.9355 19.125 28.7793 19.125C29.5605 19.125 30.1855 19.6562 30.1855 20.4375C30.1855 21.3125 29.4277 21.8516 28.4355 22.5C27.2715 23.2578 26.6543 24.0547 26.6543 26.625V27ZM28.5605 32.25C29.709 32.25 30.7324 31.2812 30.748 30.0625C30.7324 28.875 29.709 27.9062 28.5605 27.9062C27.3496 27.9062 26.3574 28.875 26.373 30.0625C26.3574 31.2812 27.3496 32.25 28.5605 32.25Z" fill="white"/>
			</g>
			<defs>
			<filter id="filter0_d" x="0" y="0" width="54" height="54" filterUnits="userSpaceOnUse" color-interpolation-filters="sRGB">
			<feFlood flood-opacity="0" result="BackgroundImageFix"/>
			<feColorMatrix in="SourceAlpha" type="matrix" values="0 0 0 0 0 0 0 0 0 0 0 0 0 0 0 0 0 0 127 0" result="hardAlpha"/>
			<feOffset dx="-2" dy="2"/>
			<feGaussianBlur stdDeviation="5"/>
			<feColorMatrix type="matrix" values="0 0 0 0 0 0 0 0 0 0 0 0 0 0 0 0 0 0 0.3 0"/>
			<feBlend mode="normal" in2="BackgroundImageFix" result="effect1_dropShadow"/>
			<feBlend mode="normal" in="SourceGraphic" in2="effect1_dropShadow" result="shape"/>
			</filter>
			</defs>
		</symbol>

		<symbol id="closePopup" title="closePopup" viewBox="0 0 36 36" fill="none">
			<circle cx="18" cy="18" r="16.5" stroke="#2B2B2B" stroke-width="2" stroke-linecap="round" stroke-linejoin="round"/>
			<path d="M23.5 12.5L12.5 23.5" stroke="#2B2B2B" stroke-width="2" stroke-linecap="round" stroke-linejoin="round"/>
			<path d="M23.5 23.5L12.5 12.5" stroke="#2B2B2B" stroke-width="2" stroke-linecap="round" stroke-linejoin="round"/>
		</symbol>

		<svg id="return" title="return" viewBox="0 0 14 21" fill="none">
			<path d="M13.2088 1.73466C13.6358 2.13014 13.6361 2.80526 13.2096 3.2012L6.13636 9.7671C5.71014 10.1627 5.71014 10.8373 6.13636 11.2329L13.2096 17.7988C13.6361 18.1947 13.6358 18.8699 13.2088 19.2653L12.0156 20.3706C11.6321 20.7257 11.0399 20.7257 10.6565 20.3706L0.792057 11.2336C0.36477 10.8379 0.36477 10.1621 0.792056 9.76636L10.6565 0.62942C11.0399 0.274276 11.6321 0.274276 12.0156 0.62942L13.2088 1.73466Z" fill="#2B2B2B"/>
		</svg>
  </defs>
</svg>