<svg aria-hidden="true" version="1.1" xmlns="http://www.w3.org/2000/svg" xml:space="preserve">
  <defs>
		<symbol id="home" title="home" x="0px" y="0px" viewBox="0 0 36 36">
			<path class="st0" d="M32.5,12.9l-2.4-1.7V4.8c0-0.6-0.5-1.2-1.2-1.2h-4.7c-0.6,0-1.2,0.5-1.2,1.2v1.5l-4.4-3.1
				c-0.4-0.3-0.9-0.3-1.3,0L3.5,12.9C3,13.3,2.9,14,3.2,14.5c0.4,0.5,1.1,0.7,1.6,0.3L5.9,14v17.8c0,0.6,0.5,1.2,1.2,1.2h7.1
				c0.6,0,1.2-0.5,1.2-1.2v-9h5.3v9c0,0.6,0.5,1.2,1.2,1.2h7c0.6,0,1.2-0.5,1.2-1.2V14l1.1,0.8c0.5,0.4,1.3,0.2,1.6-0.3
				C33.1,14,33,13.3,32.5,12.9z M27.7,30.6H23v-9c0-0.6-0.5-1.2-1.2-1.2h-7.7c-0.6,0-1.2,0.5-1.2,1.2v9H8.3V12.4L18,5.6l5.5,3.9
				c0.4,0.2,0.8,0.3,1.2,0.1c0.4-0.2,0.6-0.6,0.6-1V5.9h2.3V30.6z"/>
		</symbol>
		
		<symbol id="graphs" title="graphs" x="0px" y="0px" viewBox="0 0 25 24">
			<path d="M23.1593 5.04394H18.2298C17.7256 5.04394 17.3169 5.45452 17.3169 5.96102V21.6431H15.7651V0.917081C15.7651 0.410577 15.3564 0 14.8522 0H9.92266C9.41848 0 9.00979 0.410577 9.00979 0.917081V21.6431H7.4579V12.3806C7.4579 11.8741 7.04921 11.4635 6.54503 11.4635H1.61551C1.11133 11.4635 0.702637 11.8741 0.702637 12.3806V22.5602C0.702637 23.0667 1.11133 23.4773 1.61551 23.4773H23.1593C23.6635 23.4773 24.0722 23.0667 24.0722 22.5602V5.96102C24.0722 5.45452 23.6635 5.04394 23.1593 5.04394ZM5.63215 21.6431H2.52838V13.2977H5.63215V21.6431ZM10.8355 1.83416H13.9393V21.6431H10.8355V1.83416ZM22.2465 21.6431H19.1427V6.8781H22.2465V21.6431Z"/>
		</symbol>

		<symbol id="settings" title="settings" x="0px" y="0px" viewBox="0 0 24 24">
			<path d="M22.8575 8.52885H21.96C21.6068 8.52885 21.2895 8.31301 21.1528 7.98209C21.0132 7.64648 21.0732 7.24076 21.3231 6.99086L21.9577 6.35628C22.3128 6.01476 22.3128 5.40082 21.9577 5.05935L18.7152 1.81701C18.3738 1.46173 17.7598 1.46183 17.4183 1.81701L16.7838 2.45154C16.5339 2.70144 16.1281 2.76138 15.7956 2.62303C15.4616 2.48515 15.2458 2.16784 15.2458 1.81458V0.917081C15.2458 0.410577 14.8352 0 14.3287 0H9.74329C9.23679 0 8.82621 0.410577 8.82621 0.917081V1.81458C8.82621 2.16784 8.61042 2.48515 8.27908 2.62193C7.94348 2.76151 7.53813 2.7014 7.28822 2.45154L6.65369 1.81701C6.31217 1.46183 5.69823 1.46178 5.35676 1.81701L2.11433 5.05935C1.75621 5.41747 1.75616 5.99816 2.11433 6.35628L2.7489 6.99086C2.99876 7.24076 3.06034 7.64244 2.92035 7.97901C2.78251 8.31301 2.46516 8.52885 2.11194 8.52885H1.21444C0.70794 8.52885 0.297363 8.93943 0.297363 9.44593V14.0313C0.297363 14.5378 0.70794 14.9484 1.21444 14.9484H2.11194C2.46516 14.9484 2.79205 15.1872 2.93048 15.5225C3.07006 15.8582 2.99876 16.2365 2.74886 16.4864L2.11433 17.121C1.75616 17.4791 1.75621 18.0598 2.11433 18.4179L5.35676 21.6602C5.69823 22.0155 6.31222 22.0154 6.65369 21.6602L7.28822 21.0257C7.53808 20.7758 7.9438 20.7159 8.27642 20.8542C8.61042 20.9921 8.82621 21.3094 8.82621 21.6627V22.5602C8.82621 23.0667 9.23679 23.4773 9.74329 23.4773H14.3287C14.8352 23.4773 15.2458 23.0667 15.2458 22.5602V21.6627C15.2458 21.3094 15.4616 20.9921 15.7929 20.8553C16.1285 20.7158 16.5339 20.7758 16.7838 21.0257L17.4183 21.6602C17.7598 22.0154 18.3738 22.0155 18.7152 21.6602L21.9577 18.4179C22.3128 18.0764 22.3128 17.4625 21.9576 17.1209L21.3231 16.4864C21.0732 16.2365 21.0019 15.8582 21.1419 15.5216C21.2798 15.1876 21.6068 14.9484 21.96 14.9484H22.8575C23.364 14.9484 23.7746 14.5378 23.7746 14.0313V9.44593C23.7746 8.93943 23.364 8.52885 22.8575 8.52885ZM21.9405 13.1143C20.8496 13.122 19.8691 13.798 19.4481 14.8181C19.0247 15.8361 19.2463 16.9923 20.0123 17.7694L18.0668 19.7149C17.2897 18.9489 16.1168 18.7341 15.0958 19.1588C14.0787 19.5786 13.4195 20.5522 13.4117 21.6431H10.6603C10.6525 20.5522 9.97618 19.5715 8.95648 19.1507C7.93839 18.7272 6.78231 18.9489 6.00527 19.7149L4.05973 17.7694C4.82572 16.9923 5.04743 15.8362 4.62433 14.8191C4.20454 13.8021 3.22235 13.1221 2.13152 13.1143V10.3629C3.22235 10.3552 4.19596 9.69588 4.61521 8.68017C5.03867 7.66216 4.82572 6.48495 4.05973 5.70786L6.00527 3.76232C6.78231 4.52831 7.93852 4.74993 8.9596 4.32527C9.97664 3.90548 10.6526 2.92494 10.6603 1.83412H13.4118C13.4195 2.92498 14.0788 3.8986 15.0985 4.31949C16.1166 4.74291 17.2897 4.52831 18.0668 3.76232L20.0123 5.70782C19.2463 6.48491 19.0331 7.66175 19.4562 8.67879C19.876 9.69583 20.8496 10.3551 21.9405 10.3629V13.1143H21.9405ZM12.036 6.23615C9.00192 6.23615 6.53351 8.70456 6.53351 11.7386C6.83578 19.0384 17.2374 19.0363 17.5385 11.7386C17.5385 8.70456 15.0701 6.23615 12.036 6.23615ZM12.036 15.407C10.0133 15.407 8.36767 13.7613 8.36767 11.7386C8.56915 6.8721 15.5036 6.87352 15.7043 11.7387C15.7043 13.7613 14.0587 15.407 12.036 15.407Z"/>
		</symbol>

		<symbol id="help" title="help" x="0px" y="0px" viewBox="0 0 23 23">
			<path d="M11.5011 23C5.15213 22.993 0.00697242 17.8484 0 11.5V11.27C0.126434 4.95023 5.33031 -0.0828295 11.6514 0.00103295C17.9726 0.0848954 23.0411 5.25424 22.9998 11.5751C22.9584 17.8961 17.8228 22.9987 11.5011 23ZM11.4827 20.7H11.5011C16.5809 20.6949 20.6954 16.5746 20.6929 11.4954C20.6903 6.4162 16.5717 2.30002 11.4919 2.30002C6.41222 2.30002 2.29357 6.4162 2.29103 11.4954C2.28849 16.5746 6.40302 20.6949 11.4827 20.7ZM12.6513 18.4H10.351V16.1H12.6513V18.4ZM12.6513 14.95H10.351C10.3147 13.4523 11.0942 12.0529 12.3867 11.2953C13.1458 10.7134 13.8014 10.212 13.8014 9.20001C13.8014 7.92976 12.7715 6.90001 11.5011 6.90001C10.2308 6.90001 9.20092 7.92976 9.20092 9.20001H6.90069V9.09651C6.91918 7.45309 7.81311 5.94437 9.24574 5.13867C10.6784 4.33298 12.4321 4.3527 13.8462 5.19042C15.2603 6.02815 16.1201 7.55659 16.1016 9.20001C16.0193 10.4409 15.3536 11.5693 14.3074 12.2418C13.3617 12.8354 12.7487 13.8377 12.6513 14.95Z"/>
		</symbol>

		<symbol id="logoSimple" title="logoSimple" x="0px" y="0px" viewBox="0 0 46 49">
			<path class="st0" d="M34.3,20.4c0,0.6-0.4,1.1-0.9,1.4c-0.5,0.4-1.1,0.5-1.7,0.6c-0.7,0.1-1.4,0.3-2,0.6c-2.6,1.3-2.7,4.4-2.1,6.9
				c0,0,0,0.1,0,0.1c1-4.1,5.1-5.1,5.7-5.3c-0.5,0.2-2.4,1.1-3.6,2.5c-0.9,1-1.5,2.2-1.7,3.6c0.4-0.8,1.3-1.3,2.2-1.6
				c0.9-0.3,1.8-0.4,2.6-0.8c1.4-0.7,2.4-2.1,2.6-3.6C35.7,23.3,35.2,21.7,34.3,20.4z"/>
			<path class="st0" d="M30.1,16.2c0,0.3-0.1,0.7-0.4,0.9c-0.3,0.3-0.6,0.4-0.9,0.5c-0.4,0.2-0.7,0.3-1.1,0.6c-1.4,1-1.1,2.8-0.5,4.2
				c0,0,0,0,0,0.1c0.2-2.5,2.4-3.5,2.8-3.6c-0.3,0.2-1.3,0.9-1.8,1.8c-0.4,0.7-0.7,1.4-0.6,2.3c0.2-0.5,0.6-0.9,1.1-1.1
				c0.5-0.3,1-0.4,1.4-0.7c0.7-0.5,1.2-1.4,1.1-2.4C31.2,17.7,30.8,16.8,30.1,16.2z"/>
			<path class="st0" d="M24.8,31.7c1.3,4,1.1,10.3,1,12.8c0,0.1,0,0.1,0,0.2c0,0.1,0.1,0.1,0.1,0.2c0,0.1,0.1,0.1,0.2,0.1
				c0.1,0,0.1,0,0.2,0c0.1,0,0.1,0,0.2,0s0.1-0.1,0.2-0.1c0-0.1,0.1-0.1,0.1-0.2c0-0.1,0-0.1,0-0.2c0-1.3-0.1-2.6-0.2-3.9
				c-0.2-2.1-0.4-4.1-0.7-6.2c-0.3-2.1-0.4-4.2-1.5-6.1c-1.6-3-4.4-5.8-7.7-6.9c0.9,0.3,7.3,1.9,8.8,8.2c0-0.1,0-0.1,0.1-0.2
				c0.9-3.8,0.7-8.6-3.3-10.6c-1-0.5-2-0.8-3-1c-1-0.2-1.8-0.4-2.6-0.9c-0.7-0.5-1.3-1.3-1.3-2.1c-1.4,1.9-2.1,4.4-1.8,6.7
				c0.4,2.3,1.9,4.5,4,5.6c1.3,0.6,2.7,0.8,4,1.3l0,0c0.7,0.2,1.4,0.7,1.9,1.2C24.2,30.3,24.6,31,24.8,31.7z"/>
			<path class="st0" d="M41.5,14.2c0.2-0.2,0.3-0.5,0.2-0.7c-1.6-2.4-3.7-4.5-6.2-6c-2.6-1.7-5.6-2.7-8.7-3.1c-3.1-0.4-6.2-0.1-9.1,0.9
				c-2.9,1-5.6,2.6-7.9,4.8c-2.2,2.1-4,4.8-5,7.7c-1.1,2.9-1.5,6-1.3,9.1s1.2,6.1,2.8,8.7c1.5,2.5,3.5,4.7,5.8,6.4
				c0.2,0.2,0.6,0.1,0.7-0.1c0.2-0.2,0.1-0.6-0.1-0.7c-2.2-1.6-4.1-3.7-5.5-6.1c-1.5-2.5-2.4-5.4-2.6-8.3c-0.2-2.9,0.2-5.9,1.2-8.6
				s2.7-5.2,4.8-7.3c2.1-2,4.7-3.6,7.5-4.5c2.8-0.9,5.8-1.2,8.7-0.9c2.9,0.4,5.7,1.3,8.2,2.9c2.3,1.5,4.3,3.4,5.9,5.7
				C40.9,14.3,41.3,14.4,41.5,14.2z"/>
		</symbol>

		<symbol id="logoName" title="logoName" viewBox="0 0 154 134">
			<path d="M5.04159 133.619H6.73901L11.6286 120.511H9.98184L5.9283 132.019H5.87763L1.77342 120.511H0L5.04159 133.619Z"/>
			<path d="M31.7922 127.497C31.8259 126.582 31.7415 125.685 31.5388 124.804C31.3361 123.907 30.9983 123.119 30.5254 122.442C30.0694 121.747 29.4698 121.188 28.7267 120.765C27.9835 120.342 27.0884 120.13 26.0412 120.13C24.994 120.13 24.0989 120.333 23.3557 120.74C22.6126 121.129 22.0046 121.654 21.5316 122.315C21.0587 122.958 20.7041 123.695 20.4676 124.525C20.248 125.355 20.1382 126.201 20.1382 127.065C20.1382 127.996 20.248 128.886 20.4676 129.732C20.7041 130.562 21.0587 131.299 21.5316 131.942C22.0046 132.569 22.6126 133.069 23.3557 133.441C24.0989 133.814 24.994 134 26.0412 134C27.6964 134 28.9716 133.594 29.8667 132.781C30.7788 131.951 31.4037 130.791 31.7415 129.3H30.1454C29.8921 130.3 29.436 131.113 28.7773 131.739C28.1186 132.349 27.2066 132.654 26.0412 132.654C25.2812 132.654 24.6225 132.493 24.0651 132.171C23.5246 131.849 23.0855 131.443 22.7477 130.952C22.4099 130.461 22.1566 129.91 21.9877 129.3C21.8188 128.691 21.7343 128.09 21.7343 127.497H31.7922ZM21.7343 126.151C21.8019 125.558 21.937 124.982 22.1397 124.423C22.3592 123.847 22.6464 123.348 23.0011 122.924C23.3557 122.484 23.7864 122.137 24.2931 121.883C24.7998 121.612 25.3825 121.476 26.0412 121.476C26.683 121.476 27.2573 121.612 27.764 121.883C28.2707 122.137 28.7013 122.484 29.056 122.924C29.4107 123.348 29.6809 123.839 29.8667 124.398C30.0694 124.957 30.1792 125.541 30.1961 126.151H21.7343Z"/>
			<path d="M41.5094 133.619H43.1055V125.973C43.1223 125.329 43.2237 124.736 43.4095 124.195C43.5953 123.636 43.8655 123.161 44.2202 122.772C44.5749 122.365 44.9971 122.052 45.4869 121.832C45.9936 121.595 46.5679 121.476 47.2097 121.476C47.8515 121.476 48.3835 121.578 48.8057 121.781C49.2449 121.984 49.5911 122.264 49.8445 122.62C50.0978 122.975 50.2752 123.399 50.3765 123.89C50.4778 124.364 50.5285 124.88 50.5285 125.439V133.619H52.1246V125.185C52.1246 124.406 52.0486 123.703 51.8966 123.077C51.7446 122.45 51.4828 121.925 51.1112 121.502C50.7396 121.061 50.2414 120.723 49.6165 120.486C49.0084 120.249 48.2484 120.13 47.3363 120.13C46.8803 120.13 46.4327 120.198 45.9936 120.333C45.5545 120.452 45.1491 120.63 44.7775 120.867C44.406 121.087 44.0766 121.366 43.7895 121.705C43.5193 122.027 43.3081 122.382 43.1561 122.772H43.1055V120.511H41.5094V133.619Z"/>
			<path d="M62.7679 133.619H64.364V120.511H62.7679V133.619ZM62.7679 118.047H64.364V115.481H62.7679V118.047Z"/>
			<path d="M78.5911 133.619H80.2886L85.1781 120.511H83.5314L79.4778 132.019H79.4272L75.323 120.511H73.5495L78.5911 133.619Z"/>
			<path d="M105.342 127.497C105.375 126.582 105.291 125.685 105.088 124.804C104.886 123.907 104.548 123.119 104.075 122.442C103.619 121.747 103.019 121.188 102.276 120.765C101.533 120.342 100.638 120.13 99.5908 120.13C98.5436 120.13 97.6484 120.333 96.9053 120.74C96.1621 121.129 95.5541 121.654 95.0812 122.315C94.6083 122.958 94.2536 123.695 94.0171 124.525C93.7976 125.355 93.6878 126.201 93.6878 127.065C93.6878 127.996 93.7976 128.886 94.0171 129.732C94.2536 130.562 94.6083 131.299 95.0812 131.942C95.5541 132.569 96.1621 133.069 96.9053 133.441C97.6484 133.814 98.5436 134 99.5908 134C101.246 134 102.521 133.594 103.416 132.781C104.328 131.951 104.953 130.791 105.291 129.3H103.695C103.442 130.3 102.986 131.113 102.327 131.739C101.668 132.349 100.756 132.654 99.5908 132.654C98.8307 132.654 98.172 132.493 97.6147 132.171C97.0742 131.849 96.635 131.443 96.2973 130.952C95.9595 130.461 95.7061 129.91 95.5372 129.3C95.3683 128.691 95.2839 128.09 95.2839 127.497H105.342ZM95.2839 126.151C95.3514 125.558 95.4865 124.982 95.6892 124.423C95.9088 123.847 96.1959 123.348 96.5506 122.924C96.9053 122.484 97.336 122.137 97.8427 121.883C98.3494 121.612 98.9321 121.476 99.5908 121.476C100.233 121.476 100.807 121.612 101.314 121.883C101.82 122.137 102.251 122.484 102.606 122.924C102.96 123.348 103.23 123.839 103.416 124.398C103.619 124.957 103.729 125.541 103.746 126.151H95.2839Z"/>
			<path d="M115.084 133.619H116.68V126.633C116.68 125.956 116.799 125.321 117.035 124.728C117.271 124.135 117.601 123.627 118.023 123.204C118.462 122.78 118.977 122.459 119.568 122.238C120.16 122.001 120.818 121.9 121.545 121.934V120.333C120.362 120.282 119.34 120.545 118.479 121.121C117.635 121.697 117.01 122.518 116.604 123.585H116.554V120.511H115.084V133.619Z"/>
			<path d="M131.269 127.065C131.269 126.388 131.345 125.719 131.497 125.058C131.666 124.381 131.92 123.78 132.257 123.255C132.612 122.73 133.06 122.306 133.6 121.984C134.141 121.646 134.791 121.476 135.551 121.476C136.395 121.476 137.105 121.646 137.679 121.984C138.27 122.306 138.743 122.73 139.098 123.255C139.469 123.78 139.731 124.381 139.883 125.058C140.052 125.719 140.136 126.388 140.136 127.065C140.136 127.742 140.052 128.42 139.883 129.097C139.731 129.758 139.469 130.35 139.098 130.875C138.743 131.4 138.27 131.832 137.679 132.171C137.105 132.493 136.395 132.654 135.551 132.654C134.791 132.654 134.141 132.493 133.6 132.171C133.06 131.832 132.612 131.4 132.257 130.875C131.92 130.35 131.666 129.758 131.497 129.097C131.345 128.42 131.269 127.742 131.269 127.065ZM141.733 115.481H140.136V123.001H140.086C139.917 122.526 139.672 122.111 139.351 121.756C139.047 121.4 138.692 121.104 138.287 120.867C137.882 120.63 137.443 120.452 136.97 120.333C136.514 120.198 136.041 120.13 135.551 120.13C134.554 120.13 133.685 120.316 132.941 120.689C132.215 121.061 131.607 121.57 131.117 122.213C130.627 122.84 130.264 123.576 130.028 124.423C129.791 125.253 129.673 126.134 129.673 127.065C129.673 127.996 129.791 128.886 130.028 129.732C130.264 130.562 130.627 131.299 131.117 131.942C131.607 132.569 132.215 133.069 132.941 133.441C133.685 133.814 134.554 134 135.551 134C136.024 134 136.497 133.932 136.97 133.797C137.459 133.661 137.915 133.467 138.338 133.213C138.76 132.958 139.131 132.654 139.452 132.298C139.79 131.942 140.044 131.553 140.212 131.129H140.263V133.619H141.733V115.481Z"/>
			<path d="M152.404 133.619H154V120.511H152.404V133.619ZM152.404 118.047H154V115.481H152.404V118.047Z"/>
			<path d="M102.408 42.6611C102.322 44.0707 101.405 45.3312 100.245 46.1306C98.9022 47.0557 97.5266 47.2927 95.969 47.628C94.2725 47.9937 92.585 48.4608 91.0244 49.2406C84.5743 52.4504 84.2096 60.2496 85.7234 66.4944C85.7506 66.6042 85.777 66.7147 85.8065 66.8238C88.2497 56.4522 98.5791 53.9426 100.092 53.4089C98.8237 53.8563 94.0905 56.2713 91.078 59.7461C88.8394 62.3284 87.3029 65.3763 86.8643 68.808C87.8843 66.7556 90.0738 65.5527 92.2475 64.8433C94.4212 64.134 96.724 63.7691 98.7754 62.7546C102.248 61.0369 104.689 57.4735 105.293 53.6345C105.898 49.7955 104.742 45.7634 102.408 42.6611Z"/>
			<path d="M91.9659 31.9375C92.0557 32.7611 91.651 33.5802 91.0599 34.1579C90.3751 34.8248 89.6042 35.0989 88.7374 35.4449C87.7937 35.8234 86.865 36.2647 86.0405 36.8681C82.6309 39.3664 83.1911 43.9087 84.6815 47.3631C84.7079 47.4244 84.7336 47.4857 84.7623 47.5455C85.1481 41.3089 90.8681 38.8342 91.6895 38.3754C91.001 38.76 88.5049 40.6253 87.1081 42.9321C86.07 44.6468 85.4818 46.5606 85.5686 48.5865C85.9552 47.2995 87.1021 46.391 88.2867 45.7612C89.4713 45.1313 90.7662 44.6952 91.8519 43.9056C93.6903 42.5679 94.7458 40.2673 94.7156 37.9885C94.6854 35.7098 93.6209 33.4985 91.9659 31.9375Z"/>
			<path d="M78.7969 71.0859C81.9416 81.1645 81.6282 96.977 81.3481 103.314C81.3405 103.489 81.3681 103.663 81.4293 103.826C81.4904 103.989 81.5839 104.138 81.7041 104.265C81.8243 104.391 81.9686 104.491 82.1285 104.56C82.2884 104.629 82.4606 104.664 82.6346 104.665C82.8085 104.665 82.9808 104.63 83.141 104.562C83.3012 104.494 83.446 104.394 83.5667 104.268C83.6873 104.143 83.7814 103.994 83.8433 103.831C83.9051 103.668 83.9334 103.494 83.9265 103.32C83.8042 100.076 83.628 96.8354 83.398 93.5968C83.0205 88.4193 82.498 83.2456 81.6766 78.1189C80.8392 72.8998 80.5757 67.6118 78.0336 62.8636C74.0064 55.3386 67.058 48.3912 58.8608 45.4962C61.19 46.3184 77.0838 50.1763 80.8445 66.1386C80.8906 65.9706 80.9314 65.8002 80.9721 65.6314C83.3013 56.0222 82.7411 44.0222 72.818 39.0832C70.417 37.8886 67.8205 37.1649 65.2097 36.6024C62.8148 36.0861 60.697 35.7212 58.632 34.2987C56.8449 33.0677 55.4338 31.1282 55.3024 28.9592C51.7108 33.7332 49.9327 39.9364 50.8629 45.8414C51.7931 51.7464 55.544 57.2312 60.8918 59.8748C64.0492 61.4351 67.5902 61.9945 70.9334 63.0892L70.9931 63.1089C72.8323 63.7214 74.4995 64.7645 75.8566 66.1517C77.2137 67.5389 78.2216 69.2303 78.7969 71.0859Z"/>
			<path d="M120.987 25.0732C121.6 24.6853 121.784 23.8722 121.381 23.2684C117.325 17.1784 112.037 12.0055 105.854 8.08905C99.3018 3.93838 91.9096 1.30314 84.2146 0.374756C76.5196 -0.553631 68.715 0.248137 61.3677 2.72182C54.0203 5.19551 47.3146 9.27901 41.7378 14.6757C36.1609 20.0725 31.8528 26.6469 29.1263 33.9216C26.3999 41.1962 25.3236 48.9884 25.9757 56.7322C26.6277 64.476 28.9916 71.977 32.8959 78.6904C36.5798 85.0249 41.5477 90.5081 47.4735 94.7887C48.061 95.2131 48.8779 95.0576 49.2862 94.458C49.6946 93.8585 49.5398 93.0419 48.9528 92.6167C43.3484 88.5568 38.6488 83.3631 35.1611 77.3659C31.4531 70.9899 29.2079 63.8658 28.5886 56.511C27.9693 49.1563 28.9915 41.7556 31.581 34.8465C34.1704 27.9373 38.2621 21.6932 43.5587 16.5677C48.8554 11.4421 55.2241 7.56377 62.2023 5.21437C69.1805 2.86497 76.593 2.10349 83.9013 2.98523C91.2097 3.86697 98.2304 6.3698 104.454 10.3119C110.307 14.0198 115.317 18.9135 119.164 24.6737C119.567 25.277 120.375 25.4611 120.987 25.0732Z"/>
		</symbol>

		<symbol id="logOut" title="logOut" viewBox="0 0 19 19">
			<path d="M13.3965 4.45312V2.96875C13.3965 1.33173 12.0648 0 10.4277 0H2.96875C1.33173 0 0 1.33173 0 2.96875V16.0312C0 17.6683 1.33173 19 2.96875 19H10.4277C12.0648 19 13.3965 17.6683 13.3965 16.0312V14.5469C13.3965 14.1369 13.0642 13.8047 12.6543 13.8047C12.2444 13.8047 11.9121 14.1369 11.9121 14.5469V16.0312C11.9121 16.8497 11.2462 17.5156 10.4277 17.5156H2.96875C2.15031 17.5156 1.48438 16.8497 1.48438 16.0312V2.96875C1.48438 2.15031 2.15031 1.48438 2.96875 1.48438H10.4277C11.2462 1.48438 11.9121 2.15031 11.9121 2.96875V4.45312C11.9121 4.86307 12.2444 5.19531 12.6543 5.19531C13.0642 5.19531 13.3965 4.86307 13.3965 4.45312ZM18.4566 10.7749L16.7946 12.4369C16.5047 12.7268 16.0347 12.7268 15.745 12.4369C15.455 12.1471 15.455 11.6771 15.745 11.3874L16.9271 10.2051H8.01562C7.60568 10.2051 7.27344 9.87283 7.27344 9.46289C7.27344 9.05295 7.60568 8.7207 8.01562 8.7207H16.9271L15.745 7.53842C15.455 7.24865 15.455 6.77869 15.745 6.48892C15.8899 6.34396 16.0798 6.27148 16.2697 6.27148C16.4597 6.27148 16.6496 6.34396 16.7946 6.48892L18.4566 8.15087C19.18 8.87436 19.18 10.0514 18.4566 10.7749Z" fill="#2B2B2B"/>
		</symbol>

		<symbol id="card-arrow" title="card-arrow" width="16" height="13" viewBox="0 0 16 13" fill="none">
			<path d="M8 13L15.2169 0.5L0.783121 0.5L8 13ZM9.25 1.75L9.25 1L6.75 1L6.75 1.75L9.25 1.75Z" fill="#2B2B2B"/>
		</symbol>
  </defs>
</svg>