<svg aria-hidden="true" version="1.1" xmlns="http://www.w3.org/2000/svg" xml:space="preserve">
  <defs>
		<symbol id="home" title="home" x="0px" y="0px" viewBox="0 0 100 100">
			<path class="st0" d="M29.3,14l-1.9-1.3v-5c0-0.5-0.4-0.9-0.9-0.9h-3.7c-0.5,0-0.9,0.4-0.9,0.9v1.2l-3.4-2.4c-0.3-0.2-0.7-0.2-1.1,0L6.7,14c-0.4,0.3-0.5,0.9-0.2,1.3c0.3,0.4,0.9,0.5,1.3,0.2l0.9-0.6v13.9c0,0.5,0.4,0.9,0.9,0.9H15c0.5,0,0.9-0.4,0.9-0.9v-7h4.2v7c0,0.5,0.4,0.9,0.9,0.9h5.5c0.5,0,0.9-0.4,0.9-0.9V14.9l0.8,0.6c0.4,0.3,1,0.2,1.3-0.2C29.9,14.9,29.8,14.3,29.3,14z M25.6,27.9h-3.7v-7c0-0.5-0.4-0.9-0.9-0.9h-6c-0.5,0-0.9,0.4-0.9,0.9v7h-3.7V13.6L18,8.3l4.3,3c0.3,0.2,0.6,0.2,0.9,0.1c0.3-0.2,0.5-0.5,0.5-0.8v-2h1.8V27.9z"/>
		</symbol>
  </defs>
</svg>