<svg aria-hidden="true" version="1.1" xmlns="http://www.w3.org/2000/svg" xml:space="preserve">
  <defs>
		<symbol id="home" title="home" x="0px" y="0px" viewBox="0 0 36 36">
		<g>
			<path class="st0" d="M32.5,12.9l-2.4-1.7V4.8c0-0.6-0.5-1.2-1.2-1.2h-4.7c-0.6,0-1.2,0.5-1.2,1.2v1.5l-4.4-3.1
				c-0.4-0.3-0.9-0.3-1.3,0L3.5,12.9C3,13.3,2.9,14,3.2,14.5c0.4,0.5,1.1,0.7,1.6,0.3L5.9,14v17.8c0,0.6,0.5,1.2,1.2,1.2h7.1
				c0.6,0,1.2-0.5,1.2-1.2v-9h5.3v9c0,0.6,0.5,1.2,1.2,1.2h7c0.6,0,1.2-0.5,1.2-1.2V14l1.1,0.8c0.5,0.4,1.3,0.2,1.6-0.3
				C33.1,14,33,13.3,32.5,12.9z M27.7,30.6H23v-9c0-0.6-0.5-1.2-1.2-1.2h-7.7c-0.6,0-1.2,0.5-1.2,1.2v9H8.3V12.4L18,5.6l5.5,3.9
				c0.4,0.2,0.8,0.3,1.2,0.1c0.4-0.2,0.6-0.6,0.6-1V5.9h2.3V30.6z"/>
		</g>
		</symbol>
		<symbol id="graphs" title="graphs" x="0px" y="0px" viewBox="0 0 25 24">
			<path d="M23.1593 5.04394H18.2298C17.7256 5.04394 17.3169 5.45452 17.3169 5.96102V21.6431H15.7651V0.917081C15.7651 0.410577 15.3564 0 14.8522 0H9.92266C9.41848 0 9.00979 0.410577 9.00979 0.917081V21.6431H7.4579V12.3806C7.4579 11.8741 7.04921 11.4635 6.54503 11.4635H1.61551C1.11133 11.4635 0.702637 11.8741 0.702637 12.3806V22.5602C0.702637 23.0667 1.11133 23.4773 1.61551 23.4773H23.1593C23.6635 23.4773 24.0722 23.0667 24.0722 22.5602V5.96102C24.0722 5.45452 23.6635 5.04394 23.1593 5.04394ZM5.63215 21.6431H2.52838V13.2977H5.63215V21.6431ZM10.8355 1.83416H13.9393V21.6431H10.8355V1.83416ZM22.2465 21.6431H19.1427V6.8781H22.2465V21.6431Z"/>
		</symbol>
		<symbol id="settings" title="settings" x="0px" y="0px" viewBox="0 0 24 24">
			<path d="M22.8575 8.52885H21.96C21.6068 8.52885 21.2895 8.31301 21.1528 7.98209C21.0132 7.64648 21.0732 7.24076 21.3231 6.99086L21.9577 6.35628C22.3128 6.01476 22.3128 5.40082 21.9577 5.05935L18.7152 1.81701C18.3738 1.46173 17.7598 1.46183 17.4183 1.81701L16.7838 2.45154C16.5339 2.70144 16.1281 2.76138 15.7956 2.62303C15.4616 2.48515 15.2458 2.16784 15.2458 1.81458V0.917081C15.2458 0.410577 14.8352 0 14.3287 0H9.74329C9.23679 0 8.82621 0.410577 8.82621 0.917081V1.81458C8.82621 2.16784 8.61042 2.48515 8.27908 2.62193C7.94348 2.76151 7.53813 2.7014 7.28822 2.45154L6.65369 1.81701C6.31217 1.46183 5.69823 1.46178 5.35676 1.81701L2.11433 5.05935C1.75621 5.41747 1.75616 5.99816 2.11433 6.35628L2.7489 6.99086C2.99876 7.24076 3.06034 7.64244 2.92035 7.97901C2.78251 8.31301 2.46516 8.52885 2.11194 8.52885H1.21444C0.70794 8.52885 0.297363 8.93943 0.297363 9.44593V14.0313C0.297363 14.5378 0.70794 14.9484 1.21444 14.9484H2.11194C2.46516 14.9484 2.79205 15.1872 2.93048 15.5225C3.07006 15.8582 2.99876 16.2365 2.74886 16.4864L2.11433 17.121C1.75616 17.4791 1.75621 18.0598 2.11433 18.4179L5.35676 21.6602C5.69823 22.0155 6.31222 22.0154 6.65369 21.6602L7.28822 21.0257C7.53808 20.7758 7.9438 20.7159 8.27642 20.8542C8.61042 20.9921 8.82621 21.3094 8.82621 21.6627V22.5602C8.82621 23.0667 9.23679 23.4773 9.74329 23.4773H14.3287C14.8352 23.4773 15.2458 23.0667 15.2458 22.5602V21.6627C15.2458 21.3094 15.4616 20.9921 15.7929 20.8553C16.1285 20.7158 16.5339 20.7758 16.7838 21.0257L17.4183 21.6602C17.7598 22.0154 18.3738 22.0155 18.7152 21.6602L21.9577 18.4179C22.3128 18.0764 22.3128 17.4625 21.9576 17.1209L21.3231 16.4864C21.0732 16.2365 21.0019 15.8582 21.1419 15.5216C21.2798 15.1876 21.6068 14.9484 21.96 14.9484H22.8575C23.364 14.9484 23.7746 14.5378 23.7746 14.0313V9.44593C23.7746 8.93943 23.364 8.52885 22.8575 8.52885ZM21.9405 13.1143C20.8496 13.122 19.8691 13.798 19.4481 14.8181C19.0247 15.8361 19.2463 16.9923 20.0123 17.7694L18.0668 19.7149C17.2897 18.9489 16.1168 18.7341 15.0958 19.1588C14.0787 19.5786 13.4195 20.5522 13.4117 21.6431H10.6603C10.6525 20.5522 9.97618 19.5715 8.95648 19.1507C7.93839 18.7272 6.78231 18.9489 6.00527 19.7149L4.05973 17.7694C4.82572 16.9923 5.04743 15.8362 4.62433 14.8191C4.20454 13.8021 3.22235 13.1221 2.13152 13.1143V10.3629C3.22235 10.3552 4.19596 9.69588 4.61521 8.68017C5.03867 7.66216 4.82572 6.48495 4.05973 5.70786L6.00527 3.76232C6.78231 4.52831 7.93852 4.74993 8.9596 4.32527C9.97664 3.90548 10.6526 2.92494 10.6603 1.83412H13.4118C13.4195 2.92498 14.0788 3.8986 15.0985 4.31949C16.1166 4.74291 17.2897 4.52831 18.0668 3.76232L20.0123 5.70782C19.2463 6.48491 19.0331 7.66175 19.4562 8.67879C19.876 9.69583 20.8496 10.3551 21.9405 10.3629V13.1143H21.9405ZM12.036 6.23615C9.00192 6.23615 6.53351 8.70456 6.53351 11.7386C6.83578 19.0384 17.2374 19.0363 17.5385 11.7386C17.5385 8.70456 15.0701 6.23615 12.036 6.23615ZM12.036 15.407C10.0133 15.407 8.36767 13.7613 8.36767 11.7386C8.56915 6.8721 15.5036 6.87352 15.7043 11.7387C15.7043 13.7613 14.0587 15.407 12.036 15.407Z"/>
		</symbol>
		<svg id="help" title="help" x="0px" y="0px" viewBox="0 0 23 23">
			<path d="M11.5011 23C5.15213 22.993 0.00697242 17.8484 0 11.5V11.27C0.126434 4.95023 5.33031 -0.0828295 11.6514 0.00103295C17.9726 0.0848954 23.0411 5.25424 22.9998 11.5751C22.9584 17.8961 17.8228 22.9987 11.5011 23ZM11.4827 20.7H11.5011C16.5809 20.6949 20.6954 16.5746 20.6929 11.4954C20.6903 6.4162 16.5717 2.30002 11.4919 2.30002C6.41222 2.30002 2.29357 6.4162 2.29103 11.4954C2.28849 16.5746 6.40302 20.6949 11.4827 20.7ZM12.6513 18.4H10.351V16.1H12.6513V18.4ZM12.6513 14.95H10.351C10.3147 13.4523 11.0942 12.0529 12.3867 11.2953C13.1458 10.7134 13.8014 10.212 13.8014 9.20001C13.8014 7.92976 12.7715 6.90001 11.5011 6.90001C10.2308 6.90001 9.20092 7.92976 9.20092 9.20001H6.90069V9.09651C6.91918 7.45309 7.81311 5.94437 9.24574 5.13867C10.6784 4.33298 12.4321 4.3527 13.8462 5.19042C15.2603 6.02815 16.1201 7.55659 16.1016 9.20001C16.0193 10.4409 15.3536 11.5693 14.3074 12.2418C13.3617 12.8354 12.7487 13.8377 12.6513 14.95Z" fill="white"/>
		</svg>
  </defs>
</svg>