<svg width="136" height="136" viewBox="0 0 136 136" fill="none" xmlns="http://www.w3.org/2000/svg">
<g filter="url(#filter0_i)">
<path d="M34.3394 68C34.3394 66.7247 33.3056 65.6909 32.0304 65.6909H2.30907C1.0338 65.6909 0 66.7247 0 68C0 69.2752 1.0338 70.3091 2.30907 70.3091H32.0304C33.3056 70.3091 34.3394 69.2752 34.3394 68Z" fill="#F8F8F8"/>
</g>
<g filter="url(#filter1_i)">
<path d="M133.691 65.6909H103.972C102.697 65.6909 101.663 66.7247 101.663 68C101.663 69.2752 102.697 70.3091 103.972 70.3091H133.691C134.966 70.3091 136 69.2752 136 68C136 66.7247 134.966 65.6909 133.691 65.6909Z" fill="#F8F8F8"/>
</g>
<g filter="url(#filter2_i)">
<path d="M85.5291 100.129C84.9901 98.9728 83.6162 98.4734 82.4604 99.0117C81.3049 99.5507 80.8044 100.925 81.3435 102.08L87.4034 115.076C87.7956 115.916 88.6282 116.41 89.4978 116.41C89.8247 116.41 90.1565 116.34 90.4722 116.193C91.628 115.654 92.1281 114.28 91.5891 113.124L85.5291 100.129Z" fill="#F8F8F8"/>
</g>
<g filter="url(#filter3_i)">
<path d="M50.4706 35.8717C50.8628 36.7118 51.6954 37.2053 52.5649 37.2053C52.8918 37.2053 53.2236 37.1357 53.5393 36.9886C54.6952 36.4496 55.1953 35.0757 54.6563 33.9198L48.596 20.9257C48.0566 19.7699 46.6831 19.2701 45.5272 19.8088C44.3714 20.3478 43.8713 21.7217 44.4103 22.8776L50.4706 35.8717Z" fill="#F8F8F8"/>
</g>
<g filter="url(#filter4_i)">
<path d="M99.0108 82.4613C98.4718 83.6172 98.9722 84.9911 100.128 85.5301L113.123 91.5897C113.439 91.7368 113.771 91.8064 114.098 91.8064C114.967 91.8064 115.8 91.3129 116.192 90.4728C116.731 89.3169 116.231 87.943 115.075 87.404L102.079 81.3444C100.924 80.8057 99.5498 81.3055 99.0108 82.4613Z" fill="#F8F8F8"/>
</g>
<g filter="url(#filter5_i)">
<path d="M36.9879 53.539C37.5269 52.3831 37.0268 51.0096 35.8709 50.4706L22.8762 44.4116C21.7207 43.8722 20.3464 44.3727 19.8074 45.5285C19.2684 46.6844 19.7688 48.0579 20.9247 48.5969L33.9194 54.6559C34.2351 54.803 34.567 54.8726 34.8935 54.8726C35.7634 54.8726 36.596 54.3792 36.9879 53.539Z" fill="#F8F8F8"/>
</g>
<g filter="url(#filter6_i)">
<path d="M53.5393 99.0118C52.3838 98.4731 51.0096 98.9728 50.4706 100.129L44.4106 113.124C43.8716 114.28 44.372 115.654 45.5275 116.193C45.8432 116.34 46.1754 116.41 46.5019 116.41C47.3718 116.41 48.2044 115.916 48.5963 115.076L54.6562 102.08C55.1949 100.925 54.6952 99.5508 53.5393 99.0118Z" fill="#F8F8F8"/>
</g>
<g filter="url(#filter7_i)">
<path d="M82.4604 36.9886C82.776 37.1357 83.1079 37.2053 83.4348 37.2053C84.3043 37.2053 85.1372 36.7115 85.5291 35.8717L91.5891 22.8772C92.1281 21.7217 91.628 20.3475 90.4722 19.8085C89.3176 19.2701 87.9431 19.7696 87.4034 20.9254L81.3434 33.9198C80.8048 35.0757 81.3048 36.4496 82.4604 36.9886Z" fill="#F8F8F8"/>
</g>
<g filter="url(#filter8_i)">
<path d="M44.1981 91.8018C43.2966 90.9003 41.8343 90.9003 40.9328 91.8018L19.9166 112.818C19.0151 113.719 19.0151 115.181 19.9166 116.083C20.3676 116.534 20.9583 116.76 21.5495 116.76C22.1403 116.76 22.7314 116.534 23.182 116.083L44.1981 95.0672C45.1 94.1657 45.1 92.7034 44.1981 91.8018Z" fill="#F8F8F8"/>
</g>
<g filter="url(#filter9_i)">
<path d="M91.8038 44.1962C92.2544 44.6471 92.8456 44.8724 93.4363 44.8724C94.0275 44.8724 94.6183 44.6468 95.0692 44.1962L116.083 23.182C116.985 22.2805 116.985 20.8182 116.083 19.9167C115.181 19.0152 113.719 19.0152 112.818 19.9167L91.8038 40.9308C90.9017 41.8324 90.9017 43.2946 91.8038 44.1962Z" fill="#F8F8F8"/>
</g>
<g filter="url(#filter10_i)">
<path d="M40.9328 44.1982C41.3833 44.6491 41.9745 44.8744 42.5653 44.8744C43.1564 44.8744 43.7472 44.6488 44.1981 44.1982C45.0996 43.2967 45.0996 41.8344 44.1981 40.9328L23.182 19.917C22.2804 19.0155 20.8181 19.0155 19.9166 19.917C19.0151 20.8186 19.0151 22.2809 19.9166 23.1824L40.9328 44.1982Z" fill="#F8F8F8"/>
</g>
<g filter="url(#filter11_i)">
<path d="M95.0692 91.8038C94.1677 90.9023 92.7054 90.9023 91.8038 91.8038C90.902 92.7054 90.902 94.1676 91.8038 95.0692L112.818 116.083C113.269 116.534 113.859 116.76 114.45 116.76C115.041 116.76 115.632 116.534 116.083 116.083C116.985 115.181 116.985 113.719 116.083 112.818L95.0692 91.8038Z" fill="#F8F8F8"/>
</g>
<g filter="url(#filter12_i)">
<path d="M68.0016 41.511C53.3938 41.511 41.5094 53.3938 41.5094 68C41.5094 82.6058 53.3935 94.4886 68.0016 94.4886C82.6071 94.4886 94.4899 82.6058 94.4899 68C94.4899 53.3942 82.6075 41.511 68.0016 41.511ZM68.0016 89.8705C62.8079 89.8705 58.0337 88.0486 54.2789 85.0132C54.27 85.0059 54.2614 84.9987 54.2525 84.9914C53.9592 84.7539 53.6722 84.5091 53.3919 84.2571C53.379 84.2453 53.3661 84.233 53.3529 84.2212C53.0719 83.9672 52.7968 83.7063 52.5293 83.4381C52.5217 83.4305 52.5144 83.4226 52.5065 83.4146C52.2347 83.1412 51.9695 82.8611 51.7118 82.5738C51.7099 82.5712 51.7076 82.5685 51.7052 82.5662C51.444 82.274 51.19 81.9751 50.9442 81.6693C50.9129 81.6304 50.8826 81.5905 50.8516 81.5516C50.6447 81.291 50.4442 81.0254 50.2492 80.7553C50.207 80.6965 50.1651 80.6375 50.1235 80.5788C49.9414 80.3212 49.7656 80.0596 49.5948 79.794C49.5525 79.7284 49.5097 79.6634 49.4684 79.5971C49.2979 79.3256 49.1339 79.0499 48.9749 78.7708C48.9416 78.7121 48.9067 78.654 48.8737 78.595C48.6962 78.2766 48.5266 77.9534 48.365 77.6252C48.3558 77.6064 48.3452 77.5879 48.336 77.5688C47.9916 76.8645 47.6848 76.1388 47.4166 75.3949C47.386 75.3105 47.3593 75.2241 47.3296 75.139C47.2336 74.8619 47.1412 74.5831 47.0561 74.3011C47.0188 74.1781 46.9852 74.0537 46.9502 73.9297C46.8803 73.6813 46.8133 73.4319 46.7516 73.1799C46.7173 73.0394 46.685 72.8982 46.6537 72.7563C46.5999 72.5155 46.5508 72.2734 46.5049 72.0296C46.4772 71.8815 46.4498 71.7334 46.4251 71.5843C46.3842 71.3389 46.3495 71.0915 46.3172 70.8431C46.2981 70.6963 46.2773 70.5499 46.2611 70.4021C46.2314 70.1336 46.2103 69.8631 46.1905 69.5919C46.1813 69.4636 46.1684 69.3366 46.1612 69.2076C46.1394 68.8075 46.1262 68.4051 46.1262 67.9997C46.1262 55.9401 55.9388 46.1288 68.0003 46.1288C68.4057 46.1288 68.8082 46.142 69.2083 46.1638C69.3373 46.1707 69.4643 46.1839 69.5923 46.1932C69.8634 46.213 70.1342 46.2341 70.4027 46.2638C70.5505 46.2799 70.697 46.3007 70.8438 46.3198C71.0918 46.3522 71.3389 46.3868 71.5847 46.4274C71.7341 46.4521 71.8822 46.4795 72.0306 46.5072C72.2741 46.5531 72.5159 46.6022 72.7563 46.6556C72.8982 46.6873 73.04 46.7196 73.1809 46.7539C73.4322 46.8153 73.6816 46.8823 73.9293 46.9522C74.0534 46.9872 74.1784 47.0211 74.3018 47.0584C74.5838 47.1435 74.8622 47.2355 75.1393 47.3315C75.2244 47.3612 75.3112 47.388 75.3956 47.4186C76.1391 47.6871 76.8645 47.9936 77.5684 48.3376C77.5895 48.3479 77.6103 48.3594 77.6311 48.37C77.9567 48.5306 78.278 48.6992 78.5943 48.875C78.655 48.9086 78.7141 48.9443 78.7741 48.9786C79.0518 49.1366 79.3263 49.2999 79.5961 49.4694C79.6634 49.5113 79.7294 49.5548 79.796 49.5977C80.0606 49.7679 80.3212 49.9431 80.5775 50.1242C80.6375 50.1667 80.6975 50.2093 80.7572 50.2522C81.0261 50.4458 81.2903 50.6457 81.5496 50.8512C81.5902 50.8832 81.6311 50.9146 81.6713 50.9465C81.9778 51.193 82.2776 51.4476 82.5705 51.7099C82.5718 51.7108 82.5732 51.7122 82.5745 51.7132C82.8621 51.9708 83.1422 52.2363 83.416 52.5081C83.4236 52.5157 83.4315 52.5233 83.4394 52.5309C83.7072 52.7981 83.9675 53.0725 84.2212 53.3533C84.2334 53.3668 84.2462 53.38 84.2585 53.3935C84.5101 53.6736 84.7546 53.9602 84.9921 54.2531C84.9993 54.262 85.0066 54.2709 85.0138 54.2798C88.0489 58.0337 89.8705 62.8069 89.8705 67.9993C89.8718 80.0596 80.0609 89.8705 68.0016 89.8705Z" fill="#F8F8F8"/>
</g>
<g filter="url(#filter13_i)">
<path d="M20.9251 87.4044C19.7692 87.9434 19.2688 89.3173 19.8078 90.4732C20.1997 91.3133 21.0326 91.8068 21.9021 91.8068C22.229 91.8068 22.5609 91.7372 22.8765 91.5901L35.872 85.5304C37.0278 84.9914 37.5279 83.6175 36.9889 82.4617C36.4499 81.3058 35.0753 80.8058 33.9205 81.3448L20.9251 87.4044Z" fill="#F8F8F8"/>
</g>
<g filter="url(#filter14_i)">
<path d="M115.075 48.5969C116.231 48.0579 116.731 46.6844 116.192 45.5285C115.653 44.3723 114.279 43.8722 113.124 44.4116L100.129 50.4706C98.9734 51.0096 98.473 52.3831 99.012 53.539C99.4039 54.3791 100.237 54.873 101.106 54.873C101.433 54.873 101.765 54.8034 102.081 54.6562L115.075 48.5969Z" fill="#F8F8F8"/>
</g>
<g filter="url(#filter15_i)">
<path d="M68 103.169C66.7247 103.169 65.6909 104.203 65.6909 105.478V133.691C65.6909 134.966 66.7247 136 68 136C69.2752 136 70.309 134.966 70.309 133.691V105.478C70.309 104.203 69.2752 103.169 68 103.169Z" fill="#F8F8F8"/>
</g>
<g filter="url(#filter16_i)">
<path d="M68 32.8313C69.2752 32.8313 70.309 31.7975 70.309 30.5222V2.30907C70.309 1.0338 69.2752 0 68 0C66.7247 0 65.6909 1.0338 65.6909 2.30907V30.5222C65.6909 31.7978 66.7244 32.8313 68 32.8313Z" fill="#F8F8F8"/>
</g>
<g filter="url(#filter17_i)">
<path d="M56.8875 56.297C50.0735 60.4889 50.1668 67.7615 50.1741 68.0693C50.2041 69.3257 51.2316 70.3236 52.4815 70.3236C52.5 70.3236 52.5188 70.3232 52.5372 70.3229C53.8122 70.2926 54.8212 69.2347 54.7909 67.9597C54.7899 67.9109 54.7279 63.0477 59.3074 60.2303C60.3937 59.5623 60.7321 58.1399 60.0641 57.0537C59.3958 55.9674 57.9738 55.628 56.8875 56.297Z" fill="#F8F8F8"/>
</g>
<defs>
<filter id="filter0_i" x="-1" y="65.6909" width="35.3394" height="5.61813" filterUnits="userSpaceOnUse" color-interpolation-filters="sRGB">
<feFlood flood-opacity="0" result="BackgroundImageFix"/>
<feBlend mode="normal" in="SourceGraphic" in2="BackgroundImageFix" result="shape"/>
<feColorMatrix in="SourceAlpha" type="matrix" values="0 0 0 0 0 0 0 0 0 0 0 0 0 0 0 0 0 0 127 0" result="hardAlpha"/>
<feOffset dx="-1" dy="1"/>
<feGaussianBlur stdDeviation="2"/>
<feComposite in2="hardAlpha" operator="arithmetic" k2="-1" k3="1"/>
<feColorMatrix type="matrix" values="0 0 0 0 0 0 0 0 0 0 0 0 0 0 0 0 0 0 0.42 0"/>
<feBlend mode="normal" in2="shape" result="effect1_innerShadow"/>
</filter>
<filter id="filter1_i" x="100.663" y="65.6909" width="35.3368" height="5.61813" filterUnits="userSpaceOnUse" color-interpolation-filters="sRGB">
<feFlood flood-opacity="0" result="BackgroundImageFix"/>
<feBlend mode="normal" in="SourceGraphic" in2="BackgroundImageFix" result="shape"/>
<feColorMatrix in="SourceAlpha" type="matrix" values="0 0 0 0 0 0 0 0 0 0 0 0 0 0 0 0 0 0 127 0" result="hardAlpha"/>
<feOffset dx="-1" dy="1"/>
<feGaussianBlur stdDeviation="2"/>
<feComposite in2="hardAlpha" operator="arithmetic" k2="-1" k3="1"/>
<feColorMatrix type="matrix" values="0 0 0 0 0 0 0 0 0 0 0 0 0 0 0 0 0 0 0.42 0"/>
<feBlend mode="normal" in2="shape" result="effect1_innerShadow"/>
</filter>
<filter id="filter2_i" x="80.1266" y="98.7951" width="11.6794" height="18.6144" filterUnits="userSpaceOnUse" color-interpolation-filters="sRGB">
<feFlood flood-opacity="0" result="BackgroundImageFix"/>
<feBlend mode="normal" in="SourceGraphic" in2="BackgroundImageFix" result="shape"/>
<feColorMatrix in="SourceAlpha" type="matrix" values="0 0 0 0 0 0 0 0 0 0 0 0 0 0 0 0 0 0 127 0" result="hardAlpha"/>
<feOffset dx="-1" dy="1"/>
<feGaussianBlur stdDeviation="2"/>
<feComposite in2="hardAlpha" operator="arithmetic" k2="-1" k3="1"/>
<feColorMatrix type="matrix" values="0 0 0 0 0 0 0 0 0 0 0 0 0 0 0 0 0 0 0.42 0"/>
<feBlend mode="normal" in2="shape" result="effect1_innerShadow"/>
</filter>
<filter id="filter3_i" x="43.1934" y="19.592" width="11.6798" height="18.6133" filterUnits="userSpaceOnUse" color-interpolation-filters="sRGB">
<feFlood flood-opacity="0" result="BackgroundImageFix"/>
<feBlend mode="normal" in="SourceGraphic" in2="BackgroundImageFix" result="shape"/>
<feColorMatrix in="SourceAlpha" type="matrix" values="0 0 0 0 0 0 0 0 0 0 0 0 0 0 0 0 0 0 127 0" result="hardAlpha"/>
<feOffset dx="-1" dy="1"/>
<feGaussianBlur stdDeviation="2"/>
<feComposite in2="hardAlpha" operator="arithmetic" k2="-1" k3="1"/>
<feColorMatrix type="matrix" values="0 0 0 0 0 0 0 0 0 0 0 0 0 0 0 0 0 0 0.42 0"/>
<feBlend mode="normal" in2="shape" result="effect1_innerShadow"/>
</filter>
<filter id="filter4_i" x="97.7939" y="81.1276" width="18.6149" height="11.6788" filterUnits="userSpaceOnUse" color-interpolation-filters="sRGB">
<feFlood flood-opacity="0" result="BackgroundImageFix"/>
<feBlend mode="normal" in="SourceGraphic" in2="BackgroundImageFix" result="shape"/>
<feColorMatrix in="SourceAlpha" type="matrix" values="0 0 0 0 0 0 0 0 0 0 0 0 0 0 0 0 0 0 127 0" result="hardAlpha"/>
<feOffset dx="-1" dy="1"/>
<feGaussianBlur stdDeviation="2"/>
<feComposite in2="hardAlpha" operator="arithmetic" k2="-1" k3="1"/>
<feColorMatrix type="matrix" values="0 0 0 0 0 0 0 0 0 0 0 0 0 0 0 0 0 0 0.42 0"/>
<feBlend mode="normal" in2="shape" result="effect1_innerShadow"/>
</filter>
<filter id="filter5_i" x="18.5906" y="44.1945" width="18.6142" height="11.6781" filterUnits="userSpaceOnUse" color-interpolation-filters="sRGB">
<feFlood flood-opacity="0" result="BackgroundImageFix"/>
<feBlend mode="normal" in="SourceGraphic" in2="BackgroundImageFix" result="shape"/>
<feColorMatrix in="SourceAlpha" type="matrix" values="0 0 0 0 0 0 0 0 0 0 0 0 0 0 0 0 0 0 127 0" result="hardAlpha"/>
<feOffset dx="-1" dy="1"/>
<feGaussianBlur stdDeviation="2"/>
<feComposite in2="hardAlpha" operator="arithmetic" k2="-1" k3="1"/>
<feColorMatrix type="matrix" values="0 0 0 0 0 0 0 0 0 0 0 0 0 0 0 0 0 0 0.42 0"/>
<feBlend mode="normal" in2="shape" result="effect1_innerShadow"/>
</filter>
<filter id="filter6_i" x="43.1937" y="98.795" width="11.6793" height="18.6146" filterUnits="userSpaceOnUse" color-interpolation-filters="sRGB">
<feFlood flood-opacity="0" result="BackgroundImageFix"/>
<feBlend mode="normal" in="SourceGraphic" in2="BackgroundImageFix" result="shape"/>
<feColorMatrix in="SourceAlpha" type="matrix" values="0 0 0 0 0 0 0 0 0 0 0 0 0 0 0 0 0 0 127 0" result="hardAlpha"/>
<feOffset dx="-1" dy="1"/>
<feGaussianBlur stdDeviation="2"/>
<feComposite in2="hardAlpha" operator="arithmetic" k2="-1" k3="1"/>
<feColorMatrix type="matrix" values="0 0 0 0 0 0 0 0 0 0 0 0 0 0 0 0 0 0 0.42 0"/>
<feBlend mode="normal" in2="shape" result="effect1_innerShadow"/>
</filter>
<filter id="filter7_i" x="80.1267" y="19.5919" width="11.6793" height="18.6135" filterUnits="userSpaceOnUse" color-interpolation-filters="sRGB">
<feFlood flood-opacity="0" result="BackgroundImageFix"/>
<feBlend mode="normal" in="SourceGraphic" in2="BackgroundImageFix" result="shape"/>
<feColorMatrix in="SourceAlpha" type="matrix" values="0 0 0 0 0 0 0 0 0 0 0 0 0 0 0 0 0 0 127 0" result="hardAlpha"/>
<feOffset dx="-1" dy="1"/>
<feGaussianBlur stdDeviation="2"/>
<feComposite in2="hardAlpha" operator="arithmetic" k2="-1" k3="1"/>
<feColorMatrix type="matrix" values="0 0 0 0 0 0 0 0 0 0 0 0 0 0 0 0 0 0 0.42 0"/>
<feBlend mode="normal" in2="shape" result="effect1_innerShadow"/>
</filter>
<filter id="filter8_i" x="18.2405" y="91.1257" width="26.634" height="26.6338" filterUnits="userSpaceOnUse" color-interpolation-filters="sRGB">
<feFlood flood-opacity="0" result="BackgroundImageFix"/>
<feBlend mode="normal" in="SourceGraphic" in2="BackgroundImageFix" result="shape"/>
<feColorMatrix in="SourceAlpha" type="matrix" values="0 0 0 0 0 0 0 0 0 0 0 0 0 0 0 0 0 0 127 0" result="hardAlpha"/>
<feOffset dx="-1" dy="1"/>
<feGaussianBlur stdDeviation="2"/>
<feComposite in2="hardAlpha" operator="arithmetic" k2="-1" k3="1"/>
<feColorMatrix type="matrix" values="0 0 0 0 0 0 0 0 0 0 0 0 0 0 0 0 0 0 0.42 0"/>
<feBlend mode="normal" in2="shape" result="effect1_innerShadow"/>
</filter>
<filter id="filter9_i" x="90.1272" y="19.2405" width="26.6322" height="26.6319" filterUnits="userSpaceOnUse" color-interpolation-filters="sRGB">
<feFlood flood-opacity="0" result="BackgroundImageFix"/>
<feBlend mode="normal" in="SourceGraphic" in2="BackgroundImageFix" result="shape"/>
<feColorMatrix in="SourceAlpha" type="matrix" values="0 0 0 0 0 0 0 0 0 0 0 0 0 0 0 0 0 0 127 0" result="hardAlpha"/>
<feOffset dx="-1" dy="1"/>
<feGaussianBlur stdDeviation="2"/>
<feComposite in2="hardAlpha" operator="arithmetic" k2="-1" k3="1"/>
<feColorMatrix type="matrix" values="0 0 0 0 0 0 0 0 0 0 0 0 0 0 0 0 0 0 0.42 0"/>
<feBlend mode="normal" in2="shape" result="effect1_innerShadow"/>
</filter>
<filter id="filter10_i" x="18.2405" y="19.2409" width="26.6338" height="26.6335" filterUnits="userSpaceOnUse" color-interpolation-filters="sRGB">
<feFlood flood-opacity="0" result="BackgroundImageFix"/>
<feBlend mode="normal" in="SourceGraphic" in2="BackgroundImageFix" result="shape"/>
<feColorMatrix in="SourceAlpha" type="matrix" values="0 0 0 0 0 0 0 0 0 0 0 0 0 0 0 0 0 0 127 0" result="hardAlpha"/>
<feOffset dx="-1" dy="1"/>
<feGaussianBlur stdDeviation="2"/>
<feComposite in2="hardAlpha" operator="arithmetic" k2="-1" k3="1"/>
<feColorMatrix type="matrix" values="0 0 0 0 0 0 0 0 0 0 0 0 0 0 0 0 0 0 0.42 0"/>
<feBlend mode="normal" in2="shape" result="effect1_innerShadow"/>
</filter>
<filter id="filter11_i" x="90.1274" y="91.1277" width="26.6319" height="26.6318" filterUnits="userSpaceOnUse" color-interpolation-filters="sRGB">
<feFlood flood-opacity="0" result="BackgroundImageFix"/>
<feBlend mode="normal" in="SourceGraphic" in2="BackgroundImageFix" result="shape"/>
<feColorMatrix in="SourceAlpha" type="matrix" values="0 0 0 0 0 0 0 0 0 0 0 0 0 0 0 0 0 0 127 0" result="hardAlpha"/>
<feOffset dx="-1" dy="1"/>
<feGaussianBlur stdDeviation="2"/>
<feComposite in2="hardAlpha" operator="arithmetic" k2="-1" k3="1"/>
<feColorMatrix type="matrix" values="0 0 0 0 0 0 0 0 0 0 0 0 0 0 0 0 0 0 0.42 0"/>
<feBlend mode="normal" in2="shape" result="effect1_innerShadow"/>
</filter>
<filter id="filter12_i" x="40.5094" y="41.511" width="53.9805" height="53.9776" filterUnits="userSpaceOnUse" color-interpolation-filters="sRGB">
<feFlood flood-opacity="0" result="BackgroundImageFix"/>
<feBlend mode="normal" in="SourceGraphic" in2="BackgroundImageFix" result="shape"/>
<feColorMatrix in="SourceAlpha" type="matrix" values="0 0 0 0 0 0 0 0 0 0 0 0 0 0 0 0 0 0 127 0" result="hardAlpha"/>
<feOffset dx="-1" dy="1"/>
<feGaussianBlur stdDeviation="2"/>
<feComposite in2="hardAlpha" operator="arithmetic" k2="-1" k3="1"/>
<feColorMatrix type="matrix" values="0 0 0 0 0 0 0 0 0 0 0 0 0 0 0 0 0 0 0.42 0"/>
<feBlend mode="normal" in2="shape" result="effect1_innerShadow"/>
</filter>
<filter id="filter13_i" x="18.5909" y="81.1278" width="18.6149" height="11.679" filterUnits="userSpaceOnUse" color-interpolation-filters="sRGB">
<feFlood flood-opacity="0" result="BackgroundImageFix"/>
<feBlend mode="normal" in="SourceGraphic" in2="BackgroundImageFix" result="shape"/>
<feColorMatrix in="SourceAlpha" type="matrix" values="0 0 0 0 0 0 0 0 0 0 0 0 0 0 0 0 0 0 127 0" result="hardAlpha"/>
<feOffset dx="-1" dy="1"/>
<feGaussianBlur stdDeviation="2"/>
<feComposite in2="hardAlpha" operator="arithmetic" k2="-1" k3="1"/>
<feColorMatrix type="matrix" values="0 0 0 0 0 0 0 0 0 0 0 0 0 0 0 0 0 0 0.42 0"/>
<feBlend mode="normal" in2="shape" result="effect1_innerShadow"/>
</filter>
<filter id="filter14_i" x="97.7952" y="44.1945" width="18.6138" height="11.6785" filterUnits="userSpaceOnUse" color-interpolation-filters="sRGB">
<feFlood flood-opacity="0" result="BackgroundImageFix"/>
<feBlend mode="normal" in="SourceGraphic" in2="BackgroundImageFix" result="shape"/>
<feColorMatrix in="SourceAlpha" type="matrix" values="0 0 0 0 0 0 0 0 0 0 0 0 0 0 0 0 0 0 127 0" result="hardAlpha"/>
<feOffset dx="-1" dy="1"/>
<feGaussianBlur stdDeviation="2"/>
<feComposite in2="hardAlpha" operator="arithmetic" k2="-1" k3="1"/>
<feColorMatrix type="matrix" values="0 0 0 0 0 0 0 0 0 0 0 0 0 0 0 0 0 0 0.42 0"/>
<feBlend mode="normal" in2="shape" result="effect1_innerShadow"/>
</filter>
<filter id="filter15_i" x="64.6909" y="103.169" width="5.61812" height="33.8306" filterUnits="userSpaceOnUse" color-interpolation-filters="sRGB">
<feFlood flood-opacity="0" result="BackgroundImageFix"/>
<feBlend mode="normal" in="SourceGraphic" in2="BackgroundImageFix" result="shape"/>
<feColorMatrix in="SourceAlpha" type="matrix" values="0 0 0 0 0 0 0 0 0 0 0 0 0 0 0 0 0 0 127 0" result="hardAlpha"/>
<feOffset dx="-1" dy="1"/>
<feGaussianBlur stdDeviation="2"/>
<feComposite in2="hardAlpha" operator="arithmetic" k2="-1" k3="1"/>
<feColorMatrix type="matrix" values="0 0 0 0 0 0 0 0 0 0 0 0 0 0 0 0 0 0 0.42 0"/>
<feBlend mode="normal" in2="shape" result="effect1_innerShadow"/>
</filter>
<filter id="filter16_i" x="64.6909" y="0" width="5.61812" height="33.8313" filterUnits="userSpaceOnUse" color-interpolation-filters="sRGB">
<feFlood flood-opacity="0" result="BackgroundImageFix"/>
<feBlend mode="normal" in="SourceGraphic" in2="BackgroundImageFix" result="shape"/>
<feColorMatrix in="SourceAlpha" type="matrix" values="0 0 0 0 0 0 0 0 0 0 0 0 0 0 0 0 0 0 127 0" result="hardAlpha"/>
<feOffset dx="-1" dy="1"/>
<feGaussianBlur stdDeviation="2"/>
<feComposite in2="hardAlpha" operator="arithmetic" k2="-1" k3="1"/>
<feColorMatrix type="matrix" values="0 0 0 0 0 0 0 0 0 0 0 0 0 0 0 0 0 0 0.42 0"/>
<feBlend mode="normal" in2="shape" result="effect1_innerShadow"/>
</filter>
<filter id="filter17_i" x="49.1732" y="55.9539" width="11.2335" height="15.3696" filterUnits="userSpaceOnUse" color-interpolation-filters="sRGB">
<feFlood flood-opacity="0" result="BackgroundImageFix"/>
<feBlend mode="normal" in="SourceGraphic" in2="BackgroundImageFix" result="shape"/>
<feColorMatrix in="SourceAlpha" type="matrix" values="0 0 0 0 0 0 0 0 0 0 0 0 0 0 0 0 0 0 127 0" result="hardAlpha"/>
<feOffset dx="-1" dy="1"/>
<feGaussianBlur stdDeviation="2"/>
<feComposite in2="hardAlpha" operator="arithmetic" k2="-1" k3="1"/>
<feColorMatrix type="matrix" values="0 0 0 0 0 0 0 0 0 0 0 0 0 0 0 0 0 0 0.42 0"/>
<feBlend mode="normal" in2="shape" result="effect1_innerShadow"/>
</filter>
</defs>
</svg>
