<svg width="136" height="136" viewBox="0 0 136 136" fill="none" xmlns="http://www.w3.org/2000/svg">
<g filter="url(#filter0_i)">
<path d="M81.1516 18.541C80.4046 17.8197 79.2671 17.8197 78.5201 18.541C77.6666 19.3598 58.1323 38.3539 49.061 60.3682C48.0833 60.003 46.9577 59.7294 45.5024 59.7294C42.0686 59.7294 40.2261 61.0925 38.7457 62.1887C37.453 63.1464 36.4322 63.9022 34.2278 63.9022C32.0272 63.9022 31.0064 63.1462 29.7156 62.1906C28.237 61.0945 26.3945 59.7294 22.9627 59.7294C21.8786 59.7294 21.0015 60.6626 21.0015 61.8159C21.0015 62.9691 21.8786 63.9024 22.9627 63.9024C25.1633 63.9024 26.184 64.6584 27.4749 65.6139C28.9535 66.71 30.7959 68.0751 34.2278 68.0751C37.6617 68.0751 39.5059 66.71 40.9864 65.6139C42.2791 64.6584 43.2998 63.9024 45.5024 63.9024C47.7087 63.9024 48.7315 64.6584 50.0261 65.6158C51.5065 66.712 53.3508 68.0751 56.7867 68.0751C60.2206 68.0751 62.0648 66.712 63.5473 65.6158C64.84 64.6582 65.8628 63.9024 68.0691 63.9024C69.1531 63.9024 70.0303 62.9691 70.0303 61.8159C70.0303 60.6626 69.1531 59.7294 68.0691 59.7294C64.6333 59.7294 62.7889 61.0925 61.3066 62.1887C60.0139 63.1464 58.9911 63.9022 56.7869 63.9022C54.7262 63.9022 53.6938 63.2334 52.5137 62.3659C59.8902 44.2413 75.2496 27.6533 79.8361 22.9542C85.9437 29.2154 111.214 56.5712 111.214 80.5934C111.214 99.0003 97.1378 113.976 79.8361 113.976C72.0264 113.976 64.6368 110.881 58.9169 105.417C61.0389 104.999 62.409 104.013 63.5475 103.171C64.8402 102.213 65.863 101.458 68.0693 101.458C69.1533 101.458 70.0305 100.524 70.0305 99.3711C70.0305 98.2179 69.1533 97.2847 68.0693 97.2847C64.6335 97.2847 62.7891 98.6478 61.3068 99.744C60.0141 100.702 58.9913 101.457 56.787 101.457C54.5808 101.457 53.558 100.701 52.2653 99.744C50.7828 98.6478 48.9386 97.2847 45.5028 97.2847C42.0689 97.2847 40.2265 98.6478 38.7461 99.744C37.4534 100.702 36.4326 101.457 34.2281 101.457C32.0276 101.457 31.0068 100.701 29.7159 99.7459C28.2373 98.6498 26.3949 97.2847 22.963 97.2847C21.879 97.2847 21.0018 98.2179 21.0018 99.3711C21.0018 100.524 21.879 101.458 22.963 101.458C25.1636 101.458 26.1844 102.214 27.4753 103.169C28.9538 104.265 30.7963 105.63 34.2281 105.63C37.662 105.63 39.5063 104.265 40.9867 103.169C42.2794 102.214 43.3002 101.458 45.5028 101.458C47.7091 101.458 48.7319 102.214 50.0264 103.171C50.8253 103.762 51.7573 104.414 52.961 104.905C59.6902 113.315 69.4447 118.149 79.8361 118.149C99.3001 118.149 115.137 101.301 115.137 80.5934C115.136 51.5732 82.5383 19.8756 81.1516 18.541Z" fill="#F8F8F8"/>
</g>
<g filter="url(#filter1_i)">
<path d="M22.9612 88.9393C25.1618 88.9393 26.1826 89.6953 27.4734 90.6508C28.952 91.7469 30.7944 93.112 34.2263 93.112C35.3103 93.112 36.1875 92.1788 36.1875 91.0255C36.1875 89.8723 35.3103 88.9391 34.2263 88.9391C32.0257 88.9391 31.005 88.1831 29.7141 87.2275C28.2355 86.1314 26.3931 84.7663 22.9612 84.7663C21.8772 84.7663 21 85.6995 21 86.8528C21 88.006 21.8772 88.9393 22.9612 88.9393Z" fill="#F8F8F8"/>
</g>
<g filter="url(#filter2_i)">
<path d="M45.4998 84.7668C44.4158 84.7668 43.5386 85.7 43.5386 86.8532C43.5386 88.0065 44.4158 88.9397 45.4998 88.9397C47.7061 88.9397 48.7289 89.6957 50.0216 90.6532C51.504 91.7493 53.3483 93.1125 56.784 93.1125C60.2179 93.1125 62.0622 91.7493 63.5446 90.6532C64.8373 89.6955 65.8601 88.9397 68.0664 88.9397C70.3091 88.9397 71.4505 89.7161 72.8926 90.6982C74.5569 91.8289 76.4435 93.1127 79.8332 93.1127C80.9173 93.1127 81.7944 92.1795 81.7944 91.0262C81.7944 89.8729 80.9173 88.9397 79.8332 88.9397C77.5906 88.9397 76.4492 88.1634 75.007 87.1813C73.3427 86.0505 71.4562 84.7668 68.0664 84.7668C64.6307 84.7668 62.7862 86.1299 61.3039 87.226C60.0112 88.1837 58.9885 88.9395 56.7842 88.9395C54.5779 88.9395 53.5551 88.1835 52.2606 87.226C50.78 86.1297 48.9357 84.7668 45.4998 84.7668Z" fill="#F8F8F8"/>
</g>
<g filter="url(#filter3_i)">
<path d="M45.501 72.248C42.0671 72.248 40.2247 73.6111 38.7442 74.7072C37.4515 75.6649 36.4308 76.4207 34.2263 76.4207C32.0257 76.4207 31.005 75.6647 29.7141 74.7092C28.2355 73.6131 26.3931 72.248 22.9612 72.248C21.8772 72.248 21 73.1812 21 74.3344C21 75.4877 21.8772 76.4209 22.9612 76.4209C25.1618 76.4209 26.1826 77.1769 27.4734 78.1324C28.952 79.2286 30.7944 80.5937 34.2263 80.5937C37.6602 80.5937 39.5045 79.2286 40.9849 78.1324C42.2776 77.1769 43.2984 76.4209 45.501 76.4209C46.585 76.4209 47.4622 75.4877 47.4622 74.3344C47.4622 73.181 46.585 72.248 45.501 72.248Z" fill="#F8F8F8"/>
</g>
<g filter="url(#filter4_i)">
<path d="M63.5452 78.1344C64.8379 77.1767 65.8607 76.4209 68.067 76.4209C70.2676 76.4209 71.2884 77.1769 72.5792 78.1324C74.0578 79.2286 75.9002 80.5937 79.3321 80.5937C82.766 80.5937 84.6103 79.2286 86.0907 78.1324C87.3834 77.1769 88.4042 76.4209 90.6068 76.4209C91.6908 76.4209 92.568 75.4877 92.568 74.3344C92.568 73.1812 91.6908 72.248 90.6068 72.248C87.1729 72.248 85.3305 73.6111 83.85 74.7073C82.5573 75.6649 81.5366 76.4207 79.3321 76.4207C77.1315 76.4207 76.1108 75.6647 74.8199 74.7092C73.3413 73.6131 71.4989 72.248 68.067 72.248C64.6313 72.248 62.7868 73.6111 61.3046 74.7073C60.0119 75.6649 58.9891 76.4207 56.7848 76.4207C55.7008 76.4207 54.8236 77.3539 54.8236 78.5072C54.8236 79.6605 55.7008 80.5937 56.7848 80.5937C60.2185 80.5937 62.0628 79.2305 63.5452 78.1344Z" fill="#F8F8F8"/>
</g>
<defs>
<filter id="filter0_i" x="20.0015" y="18" width="95.1352" height="101.149" filterUnits="userSpaceOnUse" color-interpolation-filters="sRGB">
<feFlood flood-opacity="0" result="BackgroundImageFix"/>
<feBlend mode="normal" in="SourceGraphic" in2="BackgroundImageFix" result="shape"/>
<feColorMatrix in="SourceAlpha" type="matrix" values="0 0 0 0 0 0 0 0 0 0 0 0 0 0 0 0 0 0 127 0" result="hardAlpha"/>
<feOffset dx="-1" dy="1"/>
<feGaussianBlur stdDeviation="2"/>
<feComposite in2="hardAlpha" operator="arithmetic" k2="-1" k3="1"/>
<feColorMatrix type="matrix" values="0 0 0 0 0 0 0 0 0 0 0 0 0 0 0 0 0 0 0.42 0"/>
<feBlend mode="normal" in2="shape" result="effect1_innerShadow"/>
</filter>
<filter id="filter1_i" x="20" y="84.7663" width="16.1875" height="9.34572" filterUnits="userSpaceOnUse" color-interpolation-filters="sRGB">
<feFlood flood-opacity="0" result="BackgroundImageFix"/>
<feBlend mode="normal" in="SourceGraphic" in2="BackgroundImageFix" result="shape"/>
<feColorMatrix in="SourceAlpha" type="matrix" values="0 0 0 0 0 0 0 0 0 0 0 0 0 0 0 0 0 0 127 0" result="hardAlpha"/>
<feOffset dx="-1" dy="1"/>
<feGaussianBlur stdDeviation="2"/>
<feComposite in2="hardAlpha" operator="arithmetic" k2="-1" k3="1"/>
<feColorMatrix type="matrix" values="0 0 0 0 0 0 0 0 0 0 0 0 0 0 0 0 0 0 0.42 0"/>
<feBlend mode="normal" in2="shape" result="effect1_innerShadow"/>
</filter>
<filter id="filter2_i" x="42.5386" y="84.7668" width="39.2559" height="9.34591" filterUnits="userSpaceOnUse" color-interpolation-filters="sRGB">
<feFlood flood-opacity="0" result="BackgroundImageFix"/>
<feBlend mode="normal" in="SourceGraphic" in2="BackgroundImageFix" result="shape"/>
<feColorMatrix in="SourceAlpha" type="matrix" values="0 0 0 0 0 0 0 0 0 0 0 0 0 0 0 0 0 0 127 0" result="hardAlpha"/>
<feOffset dx="-1" dy="1"/>
<feGaussianBlur stdDeviation="2"/>
<feComposite in2="hardAlpha" operator="arithmetic" k2="-1" k3="1"/>
<feColorMatrix type="matrix" values="0 0 0 0 0 0 0 0 0 0 0 0 0 0 0 0 0 0 0.42 0"/>
<feBlend mode="normal" in2="shape" result="effect1_innerShadow"/>
</filter>
<filter id="filter3_i" x="20" y="72.248" width="27.4622" height="9.34572" filterUnits="userSpaceOnUse" color-interpolation-filters="sRGB">
<feFlood flood-opacity="0" result="BackgroundImageFix"/>
<feBlend mode="normal" in="SourceGraphic" in2="BackgroundImageFix" result="shape"/>
<feColorMatrix in="SourceAlpha" type="matrix" values="0 0 0 0 0 0 0 0 0 0 0 0 0 0 0 0 0 0 127 0" result="hardAlpha"/>
<feOffset dx="-1" dy="1"/>
<feGaussianBlur stdDeviation="2"/>
<feComposite in2="hardAlpha" operator="arithmetic" k2="-1" k3="1"/>
<feColorMatrix type="matrix" values="0 0 0 0 0 0 0 0 0 0 0 0 0 0 0 0 0 0 0.42 0"/>
<feBlend mode="normal" in2="shape" result="effect1_innerShadow"/>
</filter>
<filter id="filter4_i" x="53.8236" y="72.248" width="38.7444" height="9.34572" filterUnits="userSpaceOnUse" color-interpolation-filters="sRGB">
<feFlood flood-opacity="0" result="BackgroundImageFix"/>
<feBlend mode="normal" in="SourceGraphic" in2="BackgroundImageFix" result="shape"/>
<feColorMatrix in="SourceAlpha" type="matrix" values="0 0 0 0 0 0 0 0 0 0 0 0 0 0 0 0 0 0 127 0" result="hardAlpha"/>
<feOffset dx="-1" dy="1"/>
<feGaussianBlur stdDeviation="2"/>
<feComposite in2="hardAlpha" operator="arithmetic" k2="-1" k3="1"/>
<feColorMatrix type="matrix" values="0 0 0 0 0 0 0 0 0 0 0 0 0 0 0 0 0 0 0.42 0"/>
<feBlend mode="normal" in2="shape" result="effect1_innerShadow"/>
</filter>
</defs>
</svg>
