<svg width="108" height="108" viewBox="0 0 108 108" fill="none" xmlns="http://www.w3.org/2000/svg">
<g clip-path="url(#clip0)">
<g filter="url(#filter0_i)">
<path fill-rule="evenodd" clip-rule="evenodd" d="M84.8513 55.8433C84.8383 55.8147 84.8236 55.7869 84.8089 55.7592L55.7486 1.35387C55.3853 0.673035 54.6759 0.248535 53.9053 0.248535C53.1339 0.248535 52.4253 0.673035 52.062 1.35387L37.6984 28.2435C37.1547 29.2614 37.5392 30.5284 38.5572 31.0713C39.576 31.6158 40.8413 31.2313 41.385 30.2133L53.9053 6.7744L81.079 57.6474C81.0929 57.6743 81.1059 57.7013 81.1206 57.7282C83.4888 62.1618 84.7403 67.1774 84.7403 72.2339C84.7403 89.2367 70.9073 103.069 53.9053 103.069C36.9025 103.069 23.0703 89.2367 23.0703 72.2339C23.0703 67.1774 24.3218 62.161 26.69 57.7282C26.7055 57.7005 26.7194 57.6719 26.7333 57.6441L33.5073 44.9622C34.051 43.9442 33.6665 42.6781 32.6485 42.1344C31.6305 41.5907 30.3644 41.9752 29.8207 42.9932L23.0017 55.7592C22.9862 55.7878 22.9707 55.8172 22.9577 55.8465C20.2964 60.8614 18.8906 66.526 18.8906 72.2339C18.8906 91.5412 34.5979 107.249 53.9053 107.249C73.2127 107.249 88.92 91.5412 88.92 72.2339C88.92 66.5243 87.5134 60.8589 84.8513 55.8433Z" fill="#F8F8F8"/>
<path fill-rule="evenodd" clip-rule="evenodd" d="M63.4833 55.1926C62.4833 54.6155 61.2057 54.9584 60.6286 55.9576L43.562 85.5174C42.9849 86.5174 43.3277 87.795 44.3269 88.3722C44.6559 88.5624 45.0151 88.653 45.3702 88.653C46.0919 88.653 46.7948 88.2783 47.1817 87.6073L64.2482 58.0474C64.8254 57.0482 64.4825 55.7698 63.4833 55.1926Z" fill="#F8F8F8"/>
<path fill-rule="evenodd" clip-rule="evenodd" d="M42.7403 52.5427C38.0365 52.5427 34.2095 56.3698 34.2095 61.0735C34.2095 65.7781 38.0365 69.6052 42.7403 69.6052C47.4441 69.6052 51.2711 65.7781 51.2711 61.0735C51.2711 56.3698 47.4441 52.5427 42.7403 52.5427ZM42.7403 65.4255C40.341 65.4255 38.3892 63.4736 38.3892 61.0743C38.3892 58.6743 40.341 56.7224 42.7403 56.7224C45.1395 56.7224 47.0914 58.6743 47.0914 61.0743C47.0914 63.4736 45.1395 65.4255 42.7403 65.4255Z" fill="#F8F8F8"/>
<path fill-rule="evenodd" clip-rule="evenodd" d="M56.5391 82.4913C56.5391 87.1959 60.3669 91.0229 65.0707 91.0229C69.7745 91.0229 73.6015 87.1959 73.6015 82.4913C73.6015 77.7875 69.7745 73.9604 65.0707 73.9604C60.3669 73.9604 56.5391 77.7875 56.5391 82.4913ZM65.0707 78.1401C67.4699 78.1401 69.4218 80.092 69.4218 82.4913C69.4218 84.8913 67.4699 86.8432 65.0707 86.8432C62.6714 86.8432 60.7188 84.8913 60.7188 82.4913C60.7188 80.092 62.6706 78.1401 65.0707 78.1401Z" fill="#F8F8F8"/>
<path fill-rule="evenodd" clip-rule="evenodd" d="M35.603 38.6926C36.7541 38.6926 37.6929 37.7538 37.6929 36.6028C37.6929 35.4517 36.7541 34.5129 35.603 34.5129C34.452 34.5129 33.5132 35.4517 33.5132 36.6028C33.5132 37.7538 34.452 38.6926 35.603 38.6926Z" fill="#F8F8F8"/>
</g>
</g>
<defs>
<filter id="filter0_i" x="17.8906" y="0.248535" width="71.0294" height="108" filterUnits="userSpaceOnUse" color-interpolation-filters="sRGB">
<feFlood flood-opacity="0" result="BackgroundImageFix"/>
<feBlend mode="normal" in="SourceGraphic" in2="BackgroundImageFix" result="shape"/>
<feColorMatrix in="SourceAlpha" type="matrix" values="0 0 0 0 0 0 0 0 0 0 0 0 0 0 0 0 0 0 127 0" result="hardAlpha"/>
<feOffset dx="-1" dy="1"/>
<feGaussianBlur stdDeviation="2"/>
<feComposite in2="hardAlpha" operator="arithmetic" k2="-1" k3="1"/>
<feColorMatrix type="matrix" values="0 0 0 0 0 0 0 0 0 0 0 0 0 0 0 0 0 0 0.42 0"/>
<feBlend mode="normal" in2="shape" result="effect1_innerShadow"/>
</filter>
<clipPath id="clip0">
<rect width="107" height="107" fill="white" transform="translate(0.5 0.248535)"/>
</clipPath>
</defs>
</svg>
