<svg width="102" height="116" viewBox="0 0 102 116" fill="none" xmlns="http://www.w3.org/2000/svg">
<g filter="url(#filter0_i)">
<path d="M85.2775 3.30144L18.0601 81.1801C15.6758 83.9408 15.1539 87.6779 16.3703 90.8612L1.0926 108.565C-0.526262 110.441 -0.322725 113.281 1.54739 114.902C3.41805 116.529 6.25005 116.323 7.86837 114.448L23.1466 96.7467C26.4633 97.4961 30.076 96.4433 32.4586 93.6826L99.6763 15.8036C103.119 11.8157 102.686 5.7829 98.7093 2.33189C94.7348 -1.12345 88.7185 -0.68815 85.2775 3.30144ZM89.2272 15.8929L84.0935 21.8418L87.0568 24.4152C87.5267 24.8205 87.5754 25.5291 87.1724 25.9999C86.7672 26.4695 86.0606 26.5198 85.5918 26.1148L82.6264 23.5403L77.7377 29.2054L80.7021 31.7777C81.1709 32.1851 81.2208 32.8943 80.818 33.3634C80.4128 33.8352 79.7062 33.8839 79.2364 33.4789L76.2706 30.9033L71.3809 36.5678L74.3444 39.1434C74.8133 39.5487 74.8629 40.2598 74.4601 40.7291C74.0549 41.1977 73.3483 41.2488 72.8795 40.8435L69.9141 38.2693L65.0254 43.9317L67.9898 46.5058C68.4586 46.9133 68.5085 47.6222 68.1054 48.0921C67.6981 48.5634 66.9929 48.6123 66.524 48.207L63.5583 45.6317L58.671 51.2968L61.6343 53.8718C62.1007 54.2771 62.153 54.9882 61.7478 55.4581C61.3448 55.9261 60.6382 55.9769 60.1694 55.5719L57.2028 52.9975L52.3142 58.6598L55.2785 61.234C55.7463 61.6404 55.7983 62.3512 55.3931 62.82C54.9879 63.2926 54.2827 63.3402 53.8117 62.9363L50.8482 60.3618L45.9568 66.0263L48.923 68.6005C49.3897 69.0047 49.4404 69.7166 49.0363 70.1868C48.6322 70.6548 47.9256 70.7046 47.4552 70.3006L44.4908 67.7264L39.6016 73.3885L42.5659 75.9627C43.0342 76.3691 43.0852 77.081 42.6811 77.549C42.277 78.017 41.5698 78.0692 41.0999 77.6628L38.1348 75.0886L33.2464 80.7529L36.211 83.3271C36.6793 83.7335 36.73 84.4432 36.3261 84.9112C35.922 85.3792 35.2127 85.4335 34.745 85.0272L31.7801 82.453L26.8914 88.1162L29.8558 90.6906C30.3241 91.0967 30.3745 91.8054 29.9704 92.2734C29.5636 92.7457 28.8586 92.7957 28.3892 92.3915L25.4246 89.8173L24.508 90.8793C23.9004 91.5815 22.8398 91.6561 22.1378 91.0494C21.4366 90.4395 21.3584 89.3764 21.9661 88.671L86.6788 13.6945C87.287 12.9913 88.3489 12.915 89.049 13.5223C89.7588 14.1246 89.8343 15.1902 89.2272 15.8929Z" fill="#F8F8F8"/>
</g>
<defs>
<filter id="filter0_i" x="-1" y="0" width="103" height="117" filterUnits="userSpaceOnUse" color-interpolation-filters="sRGB">
<feFlood flood-opacity="0" result="BackgroundImageFix"/>
<feBlend mode="normal" in="SourceGraphic" in2="BackgroundImageFix" result="shape"/>
<feColorMatrix in="SourceAlpha" type="matrix" values="0 0 0 0 0 0 0 0 0 0 0 0 0 0 0 0 0 0 127 0" result="hardAlpha"/>
<feOffset dx="-1" dy="1"/>
<feGaussianBlur stdDeviation="2"/>
<feComposite in2="hardAlpha" operator="arithmetic" k2="-1" k3="1"/>
<feColorMatrix type="matrix" values="0 0 0 0 0 0 0 0 0 0 0 0 0 0 0 0 0 0 0.42 0"/>
<feBlend mode="normal" in2="shape" result="effect1_innerShadow"/>
</filter>
</defs>
</svg>
